<svg id="svg" version="1.1" width="1000" height="125" xmlns="http://www.w3.org/2000/svg" xmlns:xlink="http://www.w3.org/1999/xlink" style="display: block;"><g id="svgg"><path id="path0" d="M193.200 2.872 C 185.772 4.302,186.364 3.806,185.758 9.094 C 185.486 11.462,184.688 18.440,183.984 24.600 C 183.280 30.760,182.516 35.919,182.286 36.065 C 182.056 36.210,181.087 36.446,180.134 36.589 C 179.180 36.732,178.400 36.918,178.400 37.002 C 178.400 37.257,181.188 48.566,181.374 49.063 C 181.500 49.400,182.443 49.330,184.873 48.801 C 186.703 48.403,190.945 47.575,194.300 46.962 C 197.654 46.349,200.613 45.716,200.874 45.554 C 201.321 45.278,201.100 44.032,198.919 34.500 C 198.789 33.930,198.399 33.585,197.857 33.560 C 197.080 33.524,197.094 33.490,198.000 33.200 C 200.999 32.239,200.952 32.180,202.585 39.016 C 203.833 44.245,204.175 45.201,204.735 45.036 C 205.101 44.928,208.730 44.198,212.800 43.412 C 216.870 42.626,221.145 41.795,222.300 41.563 C 224.793 41.065,224.731 41.592,223.134 34.472 L 221.849 28.745 219.644 28.872 L 217.439 29.000 214.445 24.200 C 212.798 21.560,209.005 15.442,206.017 10.604 C 203.029 5.766,200.318 1.779,199.992 1.743 C 199.666 1.708,196.610 2.216,193.200 2.872 M207.844 17.300 L 216.277 31.000 218.293 30.876 L 220.308 30.752 221.323 35.076 C 222.541 40.265,223.269 39.582,214.800 41.201 C 204.751 43.121,205.642 43.312,204.538 39.000 C 203.477 34.854,203.515 34.570,205.173 34.206 C 206.651 33.881,206.649 33.896,205.415 31.789 L 204.429 30.107 199.563 31.039 C 196.886 31.551,194.654 32.022,194.602 32.085 C 194.551 32.148,194.393 33.105,194.252 34.211 L 193.996 36.222 195.572 36.071 C 197.104 35.925,197.159 35.964,197.553 37.460 C 198.532 41.188,199.077 44.029,198.840 44.175 C 198.496 44.388,184.199 47.200,183.462 47.200 C 182.904 47.200,180.643 38.978,181.028 38.354 C 181.113 38.217,181.890 37.992,182.756 37.853 C 184.566 37.564,184.399 38.100,185.402 29.400 C 185.732 26.540,186.470 20.150,187.043 15.200 C 187.616 10.250,188.211 6.063,188.366 5.896 C 188.624 5.618,197.390 3.720,198.805 3.636 C 199.186 3.613,202.540 8.684,207.844 17.300 M195.671 20.458 C 195.408 22.696,195.240 24.572,195.297 24.627 C 195.486 24.811,199.795 23.895,200.125 23.600 C 200.387 23.367,197.440 17.885,196.412 16.694 C 196.267 16.526,195.934 18.220,195.671 20.458 " stroke="none" fill="#474747" fill-rule="evenodd"></path><path id="path1" d="M185.293 11.200 C 185.293 11.970,185.375 12.285,185.476 11.900 C 185.576 11.515,185.576 10.885,185.476 10.500 C 185.375 10.115,185.293 10.430,185.293 11.200 M184.893 14.400 C 184.893 15.170,184.975 15.485,185.076 15.100 C 185.176 14.715,185.176 14.085,185.076 13.700 C 184.975 13.315,184.893 13.630,184.893 14.400 M184.493 18.000 C 184.493 18.770,184.575 19.085,184.676 18.700 C 184.776 18.315,184.776 17.685,184.676 17.300 C 184.575 16.915,184.493 17.230,184.493 18.000 M184.093 21.200 C 184.093 21.970,184.175 22.285,184.276 21.900 C 184.376 21.515,184.376 20.885,184.276 20.500 C 184.175 20.115,184.093 20.430,184.093 21.200 M183.693 25.200 C 183.693 25.970,183.775 26.285,183.876 25.900 C 183.976 25.515,183.976 24.885,183.876 24.500 C 183.775 24.115,183.693 24.430,183.693 25.200 M183.293 28.400 C 183.293 29.170,183.375 29.485,183.476 29.100 C 183.576 28.715,183.576 28.085,183.476 27.700 C 183.375 27.315,183.293 27.630,183.293 28.400 M182.893 32.000 C 182.893 32.770,182.975 33.085,183.076 32.700 C 183.176 32.315,183.176 31.685,183.076 31.300 C 182.975 30.915,182.893 31.230,182.893 32.000 M198.000 33.200 C 197.176 33.464,197.141 33.526,197.800 33.554 C 198.240 33.573,198.870 33.413,199.200 33.200 C 199.901 32.747,199.414 32.747,198.000 33.200 M224.432 40.271 C 224.414 40.750,224.085 41.224,223.700 41.324 C 223.044 41.496,223.045 41.510,223.713 41.554 C 224.488 41.604,224.998 40.731,224.669 39.913 C 224.556 39.631,224.449 39.792,224.432 40.271 " stroke="none" fill="#5f5f5f" fill-rule="evenodd"></path><path id="path2" d="M0.000 25.000 L 0.000 50.000 90.565 50.000 C 162.805 50.000,181.108 49.899,181.025 49.500 C 180.968 49.225,180.810 48.730,180.675 48.400 C 180.539 48.070,180.377 47.260,180.314 46.600 C 180.251 45.940,180.094 45.310,179.965 45.200 C 179.080 44.448,177.785 36.232,178.600 36.545 C 178.930 36.671,179.200 36.580,179.200 36.341 C 179.200 36.093,179.630 35.989,180.200 36.098 C 180.750 36.203,181.200 36.134,181.200 35.945 C 181.200 35.755,181.470 35.600,181.800 35.600 C 182.130 35.600,182.410 35.375,182.422 35.100 C 182.451 34.428,182.696 31.845,182.963 29.400 C 183.174 27.458,183.248 26.818,183.741 22.600 C 183.983 20.530,184.254 18.162,184.567 15.400 C 184.743 13.846,184.981 11.893,185.398 8.600 C 185.509 7.720,185.602 6.436,185.604 5.746 C 185.608 4.350,186.469 3.387,187.395 3.743 C 187.728 3.870,188.000 3.780,188.000 3.541 C 188.000 3.293,188.430 3.189,189.000 3.298 C 189.550 3.403,190.000 3.313,190.000 3.098 C 190.000 2.883,190.444 2.792,190.986 2.895 C 191.528 2.999,192.023 2.931,192.086 2.745 C 192.149 2.559,193.144 2.360,194.297 2.303 C 195.451 2.246,196.396 2.044,196.397 1.853 C 196.399 1.663,196.850 1.593,197.400 1.698 C 197.950 1.803,198.400 1.734,198.400 1.545 C 198.400 0.772,200.873 1.192,201.084 2.000 C 201.199 2.440,201.463 2.800,201.670 2.800 C 201.878 2.800,201.936 2.980,201.800 3.200 C 201.664 3.420,201.728 3.600,201.942 3.600 C 202.400 3.600,204.924 7.571,204.930 8.300 C 204.932 8.575,205.079 8.800,205.256 8.800 C 205.554 8.800,206.827 10.929,206.808 11.396 C 206.804 11.508,207.167 11.967,207.615 12.415 C 208.063 12.863,208.334 13.384,208.217 13.573 C 208.100 13.762,208.285 14.024,208.628 14.155 C 208.970 14.287,209.148 14.560,209.023 14.763 C 208.898 14.966,208.950 15.192,209.140 15.266 C 209.698 15.483,213.575 21.891,213.309 22.157 C 213.176 22.291,213.248 22.400,213.470 22.400 C 213.692 22.400,214.217 23.070,214.637 23.889 C 215.057 24.708,215.709 25.725,216.086 26.150 C 216.464 26.574,216.678 27.074,216.563 27.261 C 216.447 27.447,216.543 27.600,216.776 27.600 C 217.009 27.600,217.200 27.849,217.200 28.153 C 217.200 28.458,217.560 28.801,218.000 28.916 C 218.440 29.031,218.800 28.941,218.800 28.716 C 218.800 28.491,219.250 28.393,219.800 28.498 C 220.350 28.603,220.800 28.521,220.800 28.315 C 220.800 27.685,222.199 28.173,222.211 28.807 C 222.216 29.133,222.362 29.625,222.534 29.900 C 222.706 30.175,222.744 30.568,222.617 30.772 C 222.491 30.977,222.582 31.265,222.821 31.413 C 223.059 31.560,223.160 31.927,223.045 32.228 C 222.929 32.528,223.019 32.888,223.245 33.028 C 223.470 33.167,223.560 33.527,223.445 33.828 C 223.329 34.128,223.423 34.490,223.652 34.632 C 223.882 34.774,223.981 35.230,223.872 35.645 C 223.764 36.060,223.850 36.508,224.065 36.640 C 224.279 36.773,224.360 37.127,224.245 37.428 C 224.129 37.728,224.219 38.088,224.445 38.228 C 224.670 38.367,224.760 38.727,224.645 39.028 C 224.529 39.328,224.607 39.681,224.817 39.811 C 226.525 40.866,223.565 42.279,219.200 42.493 C 218.650 42.520,217.993 42.697,217.739 42.887 C 217.486 43.078,216.493 43.279,215.534 43.334 C 214.574 43.390,213.567 43.573,213.295 43.742 C 213.023 43.910,212.612 43.931,212.382 43.789 C 212.153 43.647,211.711 43.742,211.400 44.000 C 211.089 44.258,210.639 44.348,210.400 44.200 C 210.161 44.052,209.748 44.102,209.482 44.311 C 208.994 44.696,208.558 44.782,206.400 44.922 C 205.740 44.965,205.200 45.135,205.200 45.300 C 205.200 45.465,204.829 45.600,204.376 45.600 C 203.923 45.600,203.664 45.420,203.800 45.200 C 203.936 44.980,203.836 44.800,203.577 44.800 C 203.307 44.800,203.194 44.467,203.311 44.019 C 203.423 43.590,203.339 43.180,203.123 43.108 C 202.907 43.036,202.701 42.236,202.665 41.330 C 202.629 40.424,202.439 39.780,202.242 39.901 C 202.045 40.021,201.975 39.642,202.087 39.059 C 202.198 38.477,202.163 38.000,202.008 38.000 C 201.608 38.000,200.695 33.693,200.993 33.211 C 201.134 32.984,200.971 32.894,200.621 33.005 C 200.279 33.112,199.710 33.292,199.355 33.405 C 198.860 33.562,198.815 33.736,199.162 34.154 C 199.410 34.454,199.501 34.991,199.364 35.349 C 199.221 35.723,199.315 36.000,199.584 36.000 C 199.872 36.000,199.956 36.310,199.800 36.800 C 199.648 37.278,199.728 37.600,199.998 37.600 C 200.247 37.600,200.398 37.915,200.335 38.300 C 200.272 38.685,200.359 39.221,200.528 39.492 C 200.698 39.762,200.908 40.662,200.995 41.492 C 201.083 42.321,201.192 43.090,201.238 43.200 C 201.284 43.310,201.357 43.580,201.400 43.800 C 201.442 44.020,201.617 44.523,201.788 44.917 C 201.959 45.312,202.009 45.724,201.899 45.834 C 201.612 46.122,186.276 49.100,183.703 49.368 C 183.209 49.419,182.684 49.582,182.536 49.730 C 182.388 49.879,231.257 50.000,291.133 50.000 L 400.000 50.000 400.000 25.000 L 400.000 0.000 200.000 0.000 L 0.000 0.000 0.000 25.000 " stroke="none" fill="#656565" fill-rule="evenodd"></path><path id="path3" d="M198.400 1.356 C 198.400 1.442,199.017 1.585,199.772 1.673 C 200.527 1.761,201.056 1.690,200.948 1.516 C 200.755 1.203,198.400 1.055,198.400 1.356 M186.016 4.181 C 185.751 4.500,185.618 5.085,185.721 5.481 C 185.865 6.038,185.918 5.994,185.954 5.287 C 185.981 4.742,186.362 4.229,186.900 4.012 C 187.509 3.768,187.590 3.643,187.149 3.625 C 186.791 3.611,186.281 3.861,186.016 4.181 M202.882 5.034 C 203.387 5.933,204.123 7.103,204.518 7.634 C 204.912 8.165,204.822 7.865,204.318 6.966 C 203.813 6.067,203.077 4.897,202.682 4.366 C 202.288 3.835,202.378 4.135,202.882 5.034 M195.750 16.187 C 195.626 16.510,195.617 17.005,195.731 17.287 C 195.844 17.569,195.951 17.384,195.968 16.876 C 195.989 16.285,196.166 16.055,196.462 16.238 C 196.748 16.415,196.815 16.348,196.638 16.062 C 196.258 15.446,196.021 15.480,195.750 16.187 M211.149 18.600 C 211.365 19.040,211.834 19.760,212.193 20.200 L 212.844 21.000 212.451 20.200 C 212.235 19.760,211.766 19.040,211.407 18.600 L 210.756 17.800 211.149 18.600 M186.093 25.200 C 186.093 25.970,186.175 26.285,186.276 25.900 C 186.376 25.515,186.376 24.885,186.276 24.500 C 186.175 24.115,186.093 24.430,186.093 25.200 M185.293 32.000 C 185.293 32.770,185.375 33.085,185.476 32.700 C 185.576 32.315,185.576 31.685,185.476 31.300 C 185.375 30.915,185.293 31.230,185.293 32.000 M200.050 33.043 C 200.471 33.170,200.887 34.109,201.235 35.720 C 201.529 37.084,201.821 37.930,201.882 37.600 C 202.138 36.232,200.958 33.002,200.174 32.923 C 199.636 32.870,199.598 32.906,200.050 33.043 M184.893 35.200 C 184.893 35.970,184.975 36.285,185.076 35.900 C 185.176 35.515,185.176 34.885,185.076 34.500 C 184.975 34.115,184.893 34.430,184.893 35.200 M178.040 37.300 C 178.062 37.795,178.221 38.650,178.394 39.200 C 178.634 39.964,178.695 39.752,178.654 38.303 C 178.624 37.259,178.465 36.404,178.300 36.403 C 178.135 36.401,178.018 36.805,178.040 37.300 M202.043 38.800 C 202.028 39.130,202.266 40.300,202.572 41.400 C 202.878 42.500,203.141 43.130,203.157 42.800 C 203.172 42.470,202.934 41.300,202.628 40.200 C 202.322 39.100,202.059 38.470,202.043 38.800 M179.280 42.600 C 179.280 43.040,179.424 43.850,179.600 44.400 C 179.854 45.192,179.920 45.233,179.920 44.600 C 179.920 44.160,179.776 43.350,179.600 42.800 C 179.346 42.008,179.280 41.967,179.280 42.600 M198.400 43.304 C 198.400 43.655,198.085 44.024,197.700 44.124 C 197.044 44.296,197.045 44.310,197.713 44.354 C 198.436 44.401,199.106 43.373,198.649 42.916 C 198.512 42.779,198.400 42.953,198.400 43.304 " stroke="none" fill="#696969" fill-rule="evenodd"></path><path id="path4" d="M193.369 5.082 L 188.538 6.079 186.827 20.940 C 184.684 39.558,185.034 37.867,183.260 38.200 C 182.461 38.350,181.694 38.542,181.558 38.626 C 181.302 38.784,182.953 46.287,183.325 46.659 C 183.557 46.890,197.973 44.161,198.313 43.821 C 198.540 43.593,197.836 39.934,197.126 37.654 C 196.725 36.363,196.641 36.316,195.112 36.521 L 193.516 36.735 193.792 34.468 C 194.149 31.538,193.926 31.690,199.451 30.612 C 204.856 29.557,204.475 29.480,205.994 31.921 C 207.243 33.927,207.221 34.397,205.876 34.406 C 204.004 34.419,203.913 34.810,204.870 38.731 C 205.435 41.048,205.959 42.400,206.292 42.400 C 206.747 42.400,221.682 39.563,221.868 39.441 C 221.926 39.404,221.102 35.772,220.202 32.088 C 219.997 31.253,219.818 31.195,218.089 31.413 L 216.200 31.651 210.946 23.126 C 208.056 18.437,204.219 12.215,202.420 9.300 C 200.620 6.385,198.934 4.019,198.674 4.043 C 198.413 4.066,196.026 4.534,193.369 5.082 M198.856 19.894 C 201.442 24.233,201.489 24.042,197.661 24.772 C 194.478 25.378,194.617 25.604,195.181 20.719 C 195.912 14.384,195.612 14.451,198.856 19.894 " stroke="none" fill="#939393" fill-rule="evenodd"></path></g></svg>