<svg id="svg" version="1.1" width="1000" height="125" xmlns="http://www.w3.org/2000/svg" xmlns:xlink="http://www.w3.org/1999/xlink" style="display: block;"><g id="svgg"><path id="path0" d="M203.200 1.033 C 201.990 1.333,196.410 2.501,190.800 3.628 C 179.241 5.952,179.913 5.682,180.409 7.802 C 180.614 8.681,181.253 11.431,181.829 13.913 L 182.876 18.425 184.335 18.313 L 185.794 18.200 186.872 23.600 C 189.494 36.734,189.456 36.391,188.276 36.406 C 186.769 36.426,186.729 36.950,187.798 42.638 C 188.373 45.697,188.925 48.479,189.024 48.821 C 189.178 49.352,191.122 49.032,202.502 46.600 L 215.800 43.758 218.889 39.179 C 222.411 33.959,222.267 35.028,220.576 26.600 C 219.763 22.545,219.447 21.655,218.542 20.864 C 217.511 19.962,217.495 19.886,218.112 18.841 C 218.714 17.821,218.680 17.416,217.539 12.169 L 216.325 6.583 211.795 3.492 C 206.983 0.207,206.775 0.148,203.200 1.033 M210.813 4.468 C 213.049 6.045,214.968 7.573,215.080 7.864 C 216.354 11.184,217.042 17.476,216.295 18.972 C 215.451 20.663,215.506 20.795,217.545 21.968 C 217.988 22.224,220.350 31.754,220.389 33.449 C 220.397 33.789,217.740 38.134,214.957 42.332 C 214.765 42.621,190.781 47.715,190.576 47.509 C 190.490 47.423,189.975 45.298,189.432 42.786 C 188.409 38.060,188.464 37.621,190.076 37.606 C 191.321 37.595,191.257 36.846,189.198 27.300 C 186.573 15.131,186.997 16.327,185.415 16.624 C 183.766 16.933,183.827 17.043,182.659 11.634 L 181.691 7.146 182.545 6.827 C 183.015 6.652,185.560 6.089,188.200 5.578 C 190.840 5.066,195.970 3.978,199.600 3.162 C 203.230 2.345,206.324 1.659,206.475 1.638 C 206.626 1.617,208.578 2.891,210.813 4.468 M201.330 13.172 C 197.891 13.925,197.932 13.891,198.372 15.622 C 198.565 16.380,198.827 17.469,198.954 18.043 L 199.187 19.086 202.193 18.488 C 205.553 17.819,205.538 17.844,204.662 14.372 L 204.200 12.544 201.330 13.172 M203.535 15.555 C 203.698 16.704,203.041 17.186,201.300 17.194 C 200.128 17.199,200.000 17.085,200.000 16.028 C 200.000 14.210,203.283 13.771,203.535 15.555 M203.501 28.148 C 201.199 28.696,201.327 28.387,201.954 31.900 C 202.532 35.134,202.380 35.049,206.034 34.163 L 208.668 33.524 208.079 30.562 C 207.415 27.225,207.402 27.218,203.501 28.148 M206.725 30.500 C 207.146 32.072,206.936 32.798,206.057 32.805 C 205.696 32.808,205.008 32.916,204.530 33.044 C 203.789 33.243,203.595 33.049,203.232 31.739 C 202.675 29.732,202.679 29.690,203.500 29.476 C 205.592 28.929,206.371 29.176,206.725 30.500 " stroke="none" fill="#808080" fill-rule="evenodd"></path><path id="path1" d="M192.323 2.745 C 185.571 4.205,179.942 5.509,179.814 5.643 C 179.628 5.837,181.274 14.359,182.251 18.258 C 182.434 18.990,182.681 19.086,183.942 18.917 L 185.418 18.719 186.609 24.660 C 187.264 27.927,187.842 30.150,187.893 29.600 C 187.945 29.050,187.494 26.260,186.891 23.400 L 185.795 18.200 184.335 18.313 L 182.876 18.425 181.829 13.913 C 181.253 11.431,180.614 8.681,180.409 7.802 C 179.914 5.684,179.259 5.950,190.600 3.663 C 196.100 2.554,202.053 1.334,203.830 0.953 L 207.060 0.260 211.693 3.422 L 216.325 6.583 217.539 12.169 C 218.687 17.451,218.718 17.815,218.101 18.860 C 217.469 19.931,217.481 19.991,218.507 20.798 C 219.292 21.416,219.688 22.251,220.037 24.028 C 220.297 25.346,220.587 26.346,220.682 26.251 C 221.232 25.702,219.827 21.179,218.923 20.586 C 217.998 19.980,217.978 19.893,218.572 18.987 C 219.154 18.099,219.111 17.609,217.992 12.363 C 216.534 5.526,217.254 6.643,211.979 3.021 C 206.592 -0.679,208.063 -0.658,192.323 2.745 M201.618 2.720 C 199.098 3.284,197.215 3.805,197.432 3.877 C 197.650 3.950,199.795 3.575,202.200 3.045 L 206.572 2.081 210.229 4.630 C 214.875 7.870,214.560 7.397,215.716 12.875 C 216.689 17.488,216.692 17.566,215.951 18.785 C 214.928 20.467,215.001 20.865,216.515 21.845 C 217.764 22.653,217.869 22.925,218.941 28.162 L 220.062 33.634 218.252 36.517 C 217.257 38.103,216.012 40.020,215.485 40.777 L 214.528 42.154 202.768 44.647 C 196.299 46.018,190.943 47.076,190.865 46.998 C 190.787 46.920,190.319 44.937,189.825 42.591 C 188.902 38.207,188.905 38.189,190.600 37.919 C 191.118 37.837,191.434 37.440,191.496 36.796 C 191.591 35.813,191.587 35.811,191.209 36.700 C 190.998 37.195,190.505 37.603,190.113 37.606 C 188.460 37.620,188.405 38.039,189.432 42.786 C 189.975 45.298,190.490 47.423,190.576 47.509 C 190.781 47.715,214.765 42.621,214.957 42.332 C 217.740 38.134,220.397 33.789,220.389 33.449 C 220.350 31.754,217.988 22.224,217.545 21.968 C 215.506 20.795,215.451 20.663,216.295 18.972 C 217.042 17.476,216.354 11.184,215.080 7.864 C 214.862 7.297,206.933 1.569,206.475 1.647 C 206.324 1.673,204.138 2.156,201.618 2.720 M186.967 5.766 C 184.748 6.259,182.654 6.771,182.311 6.902 C 181.761 7.113,181.800 7.654,182.659 11.631 C 183.826 17.038,183.768 16.933,185.399 16.627 C 186.990 16.328,186.632 15.350,189.022 26.540 C 190.095 31.567,191.030 35.511,191.099 35.304 C 191.199 35.002,188.224 20.445,187.332 16.874 C 187.135 16.089,186.883 15.968,185.664 16.074 L 184.228 16.200 183.325 12.200 C 182.147 6.985,182.061 7.326,184.700 6.788 C 189.237 5.863,192.982 4.882,192.000 4.875 C 191.450 4.872,189.185 5.272,186.967 5.766 M200.931 12.751 C 197.356 13.560,197.450 13.444,198.013 16.303 C 198.715 19.871,198.617 19.809,202.255 19.006 C 203.985 18.623,205.510 18.246,205.644 18.166 C 206.067 17.916,204.712 11.997,204.245 12.051 C 204.000 12.079,202.509 12.394,200.931 12.751 M205.162 17.045 C 205.195 17.783,204.822 17.965,202.193 18.488 L 199.187 19.086 198.954 18.043 C 198.827 17.469,198.565 16.380,198.372 15.622 C 197.932 13.891,197.891 13.925,201.330 13.172 L 204.200 12.544 204.662 14.372 C 204.915 15.377,205.140 16.580,205.162 17.045 M200.900 14.675 C 199.289 14.998,199.639 17.202,201.300 17.194 C 203.041 17.186,203.698 16.704,203.535 15.555 C 203.396 14.569,202.658 14.323,200.900 14.675 M203.071 15.440 C 203.358 16.189,202.578 16.785,201.300 16.794 C 200.675 16.798,200.400 16.564,200.400 16.028 C 200.400 15.331,200.684 15.173,202.513 14.854 C 202.684 14.825,202.936 15.088,203.071 15.440 M204.000 27.475 C 200.578 28.270,200.607 28.219,201.416 31.962 C 202.213 35.650,202.031 35.552,206.273 34.568 C 209.638 33.788,209.376 34.282,208.573 30.239 C 207.806 26.372,208.067 26.530,204.000 27.475 M220.846 27.000 C 220.822 27.220,221.078 28.975,221.415 30.900 L 222.027 34.399 218.913 39.079 L 215.800 43.759 202.507 46.599 C 195.195 48.161,189.134 49.291,189.037 49.110 C 188.939 48.928,188.911 49.010,188.973 49.290 C 189.127 49.983,188.939 50.014,203.346 46.942 L 216.092 44.224 219.260 39.412 C 222.293 34.804,222.418 34.524,222.203 32.800 C 221.956 30.817,220.914 26.364,220.846 27.000 M208.079 30.562 L 208.668 33.524 206.034 34.163 C 202.380 35.049,202.532 35.134,201.954 31.900 C 201.327 28.387,201.199 28.696,203.501 28.148 C 207.402 27.218,207.415 27.225,208.079 30.562 M203.500 29.476 C 202.679 29.690,202.675 29.732,203.232 31.739 C 203.595 33.049,203.789 33.243,204.530 33.044 C 205.008 32.916,205.696 32.808,206.057 32.805 C 206.936 32.798,207.146 32.072,206.725 30.500 C 206.371 29.176,205.592 28.929,203.500 29.476 M206.179 30.658 C 206.501 31.941,206.012 32.513,204.746 32.334 C 204.103 32.243,203.757 31.894,203.665 31.245 C 203.413 29.466,205.743 28.921,206.179 30.658 M188.080 31.400 C 188.080 31.840,188.224 32.650,188.400 33.200 C 188.654 33.992,188.720 34.033,188.720 33.400 C 188.720 32.960,188.576 32.150,188.400 31.600 C 188.146 30.808,188.080 30.767,188.080 31.400 M188.800 35.155 C 188.800 35.706,188.410 35.984,187.367 36.180 C 186.404 36.360,186.000 36.624,186.137 36.981 C 186.250 37.274,186.741 39.517,187.229 41.965 C 187.717 44.414,188.196 46.338,188.294 46.240 C 188.391 46.142,188.095 44.096,187.636 41.694 C 187.176 39.292,186.800 37.225,186.800 37.102 C 186.800 36.979,187.340 36.690,188.000 36.460 C 189.011 36.107,189.840 34.400,189.000 34.400 C 188.890 34.400,188.800 34.740,188.800 35.155 " stroke="none" fill="#828282" fill-rule="evenodd"></path><path id="path2" d="M201.131 0.391 C 200.544 0.569,196.448 1.483,192.031 2.423 C 187.613 3.363,184.072 4.206,184.162 4.295 C 184.309 4.442,203.241 0.590,204.200 0.218 C 204.979 -0.084,202.183 0.074,201.131 0.391 M208.000 0.161 C 208.000 0.250,209.902 1.617,212.227 3.200 C 214.552 4.782,216.611 6.465,216.802 6.939 C 217.132 7.758,217.151 7.761,217.175 6.997 C 217.193 6.418,215.979 5.328,212.835 3.097 C 208.772 0.214,208.000 -0.255,208.000 0.161 M194.423 4.655 C 187.946 6.066,182.572 7.295,182.480 7.387 C 182.389 7.478,182.743 9.499,183.268 11.877 L 184.222 16.200 185.665 16.074 C 187.030 15.955,187.132 16.030,187.544 17.474 L 187.980 19.000 187.754 17.403 C 187.453 15.281,187.393 15.219,185.882 15.464 L 184.579 15.676 183.749 11.668 L 182.919 7.660 185.560 7.072 C 187.012 6.748,192.364 5.630,197.453 4.588 L 206.705 2.693 210.449 5.371 L 214.193 8.049 215.077 11.925 C 216.187 16.787,216.194 17.477,215.155 19.181 L 214.313 20.562 215.257 21.327 C 215.775 21.748,216.486 22.297,216.836 22.546 C 217.231 22.828,217.824 24.705,218.401 27.502 C 218.912 29.978,219.406 31.927,219.499 31.835 C 220.248 31.085,217.719 22.624,216.513 21.843 C 215.001 20.865,214.928 20.466,215.951 18.785 C 216.733 17.498,215.492 9.121,214.307 7.690 C 213.854 7.142,206.542 1.970,206.328 2.045 C 206.258 2.070,200.900 3.245,194.423 4.655 M179.344 5.402 C 179.056 6.153,181.533 18.405,182.120 19.131 C 182.394 19.470,182.994 19.578,183.786 19.429 L 185.024 19.197 186.576 26.498 C 187.430 30.514,188.208 34.193,188.306 34.674 C 188.456 35.412,188.256 35.591,187.021 35.823 C 185.329 36.140,185.298 35.193,187.306 44.300 C 187.998 47.435,188.717 50.000,188.905 50.000 C 189.093 50.000,189.143 49.831,189.016 49.625 C 188.888 49.419,188.241 46.674,187.578 43.525 C 186.916 40.376,186.280 37.495,186.167 37.122 C 186.008 36.601,186.289 36.382,187.380 36.177 C 189.112 35.853,189.144 36.955,187.112 27.061 L 185.400 18.722 183.933 18.919 C 182.681 19.086,182.434 18.989,182.251 18.258 C 181.120 13.743,179.641 5.803,179.888 5.570 C 180.060 5.409,180.560 5.191,181.000 5.085 C 181.598 4.941,181.520 4.881,180.687 4.846 C 180.032 4.819,179.480 5.047,179.344 5.402 M217.200 8.301 C 217.200 8.540,217.652 10.824,218.203 13.377 C 219.131 17.667,219.159 18.091,218.575 18.981 C 217.976 19.896,217.996 19.979,218.948 20.603 C 219.500 20.965,220.029 21.652,220.122 22.130 L 220.291 23.000 220.346 22.119 C 220.377 21.613,219.996 20.933,219.453 20.523 C 218.601 19.880,218.562 19.724,219.064 18.958 C 219.551 18.215,219.489 17.484,218.564 13.154 C 217.589 8.581,217.200 7.199,217.200 8.301 M200.800 12.344 C 199.150 12.705,197.596 13.133,197.346 13.295 C 196.627 13.763,198.055 19.761,198.925 19.929 C 199.803 20.098,205.678 18.882,206.120 18.440 C 206.478 18.082,205.738 13.495,205.129 12.300 C 204.713 11.485,204.722 11.485,200.800 12.344 M205.289 15.011 C 205.618 16.667,205.778 18.087,205.644 18.166 C 204.535 18.823,199.073 19.641,198.795 19.192 C 198.310 18.408,197.512 13.955,197.803 13.661 C 198.028 13.435,202.994 12.193,204.245 12.051 C 204.491 12.023,204.957 13.344,205.289 15.011 M201.300 15.082 C 200.737 15.191,200.400 15.545,200.400 16.028 C 200.400 16.861,201.725 17.089,202.758 16.434 C 203.314 16.082,203.107 14.751,202.513 14.854 C 202.341 14.884,201.795 14.987,201.300 15.082 M202.800 15.753 C 202.800 16.108,201.182 16.294,200.977 15.962 C 200.854 15.763,201.213 15.600,201.776 15.600 C 202.339 15.600,202.800 15.669,202.800 15.753 M220.486 23.800 C 220.481 24.240,220.708 25.500,220.991 26.600 C 221.274 27.700,221.509 28.240,221.514 27.800 C 221.519 27.360,221.292 26.100,221.009 25.000 C 220.726 23.900,220.491 23.360,220.486 23.800 M203.600 27.073 C 199.929 27.923,199.903 27.969,200.858 32.000 C 201.860 36.231,201.652 36.062,205.000 35.376 C 210.179 34.316,209.736 34.605,209.452 32.479 C 208.576 25.938,208.561 25.924,203.600 27.073 M189.680 27.400 C 189.680 27.840,189.824 28.650,190.000 29.200 C 190.254 29.992,190.320 30.033,190.320 29.400 C 190.320 28.960,190.176 28.150,190.000 27.600 C 189.746 26.808,189.680 26.767,189.680 27.400 M208.573 30.239 C 209.376 34.282,209.638 33.788,206.273 34.568 C 202.031 35.552,202.213 35.650,201.416 31.962 C 200.607 28.219,200.578 28.270,204.000 27.475 C 208.067 26.530,207.806 26.372,208.573 30.239 M221.817 30.000 C 222.542 34.733,222.683 34.217,219.260 39.415 L 216.089 44.230 202.955 47.015 C 195.732 48.547,190.267 49.845,190.811 49.900 C 191.355 49.954,197.290 48.784,204.000 47.300 L 216.200 44.600 219.499 39.600 C 223.012 34.275,223.147 33.825,222.193 30.600 C 221.792 29.241,221.671 29.049,221.817 30.000 M204.065 29.951 C 203.185 30.509,203.663 32.181,204.746 32.334 C 206.012 32.513,206.501 31.941,206.179 30.658 C 205.910 29.588,205.077 29.310,204.065 29.951 M205.726 31.700 C 205.631 31.865,205.203 32.000,204.776 32.000 C 203.785 32.000,203.718 30.516,204.700 30.316 C 205.384 30.176,206.071 31.103,205.726 31.700 M191.104 34.000 C 191.247 34.990,191.372 36.295,191.382 36.900 C 191.392 37.505,191.535 38.000,191.700 38.000 C 192.131 38.000,192.006 36.508,191.384 34.200 L 190.844 32.200 191.104 34.000 M219.600 33.104 C 219.600 34.140,214.798 41.225,213.830 41.617 C 213.373 41.802,208.140 42.976,202.200 44.225 C 196.260 45.475,191.220 46.682,191.000 46.908 C 190.730 47.184,190.795 47.255,191.200 47.126 C 191.530 47.020,196.919 45.868,203.174 44.567 L 214.549 42.200 217.274 38.021 C 219.628 34.413,220.532 32.400,219.800 32.400 C 219.690 32.400,219.600 32.717,219.600 33.104 " stroke="none" fill="#fdfdfd" fill-rule="evenodd"></path><path id="path3" d="M0.000 25.000 L 0.000 50.000 94.200 50.000 C 149.193 50.000,188.400 49.851,188.400 49.643 C 188.400 49.446,187.882 46.971,187.248 44.143 C 185.327 35.565,185.342 36.137,187.028 35.821 C 188.259 35.590,188.444 35.420,188.269 34.675 C 188.156 34.194,187.375 30.520,186.532 26.511 L 185.001 19.222 183.528 19.458 C 181.816 19.732,181.983 20.124,180.224 11.694 C 178.799 4.864,178.788 4.948,181.100 4.629 C 183.336 4.321,201.323 0.393,201.567 0.160 C 201.658 0.072,156.343 -0.000,100.867 -0.000 L 0.000 0.000 0.000 25.000 M209.020 0.340 C 209.229 0.527,211.132 1.875,213.249 3.335 L 217.099 5.989 217.927 9.695 C 219.758 17.893,219.777 18.024,219.245 18.877 C 218.827 19.546,218.864 19.806,219.473 20.472 C 219.929 20.971,220.733 23.668,221.631 27.719 L 223.062 34.171 219.638 39.459 C 216.514 44.282,216.090 44.768,214.807 45.000 C 211.909 45.522,192.993 49.691,192.833 49.842 C 192.742 49.929,239.317 50.000,296.333 50.000 L 400.000 50.000 400.000 25.000 L 400.000 0.000 304.320 0.000 C 251.696 0.000,208.811 0.153,209.020 0.340 M194.365 5.291 L 182.931 7.717 183.755 11.696 L 184.579 15.676 185.908 15.460 C 187.500 15.202,187.671 15.525,188.565 20.482 C 188.894 22.307,189.801 26.721,190.582 30.292 C 192.322 38.259,192.322 37.903,190.588 38.229 C 189.534 38.426,189.224 38.659,189.365 39.147 C 189.468 39.506,189.864 41.285,190.245 43.100 C 190.716 45.348,191.116 46.400,191.501 46.400 C 192.179 46.400,214.043 41.621,214.414 41.391 C 214.557 41.303,215.800 39.523,217.177 37.435 L 219.680 33.639 218.624 28.520 C 217.548 23.301,217.143 22.510,214.902 21.246 C 214.245 20.876,214.262 20.737,215.154 19.095 L 216.107 17.339 215.164 12.679 L 214.222 8.018 210.411 5.408 C 208.315 3.973,206.420 2.813,206.200 2.831 C 205.980 2.850,200.654 3.956,194.365 5.291 M205.104 12.100 C 205.534 12.633,206.641 18.304,206.364 18.551 C 206.274 18.632,204.539 19.059,202.509 19.500 C 198.179 20.441,198.315 20.523,197.494 16.492 C 196.803 13.106,196.690 13.257,200.600 12.351 C 204.188 11.519,204.617 11.495,205.104 12.100 M200.977 15.962 C 201.100 16.162,201.561 16.231,202.000 16.116 C 203.101 15.828,203.002 15.600,201.776 15.600 C 201.213 15.600,200.854 15.763,200.977 15.962 M209.192 30.243 C 209.603 32.199,209.794 33.950,209.617 34.133 C 209.323 34.436,203.188 35.965,202.169 35.990 C 201.697 36.001,199.850 28.416,200.232 28.035 C 200.679 27.587,207.802 26.108,208.123 26.396 C 208.301 26.556,208.782 28.287,209.192 30.243 M204.110 31.200 C 204.146 31.679,204.457 32.000,204.885 32.000 C 205.333 32.000,205.600 31.702,205.600 31.200 C 205.600 30.675,205.333 30.400,204.825 30.400 C 204.296 30.400,204.069 30.654,204.110 31.200 " stroke="none" fill="#ffffff" fill-rule="evenodd"></path><path id="path4" d="" stroke="none" fill="#fefefe" fill-rule="evenodd"></path></g></svg>