<svg id="svg" version="1.1" width="1000" height="125" xmlns="http://www.w3.org/2000/svg" xmlns:xlink="http://www.w3.org/1999/xlink" style="display: block;"><g id="svgg"><path id="path0" d="M199.400 2.198 C 196.100 2.926,192.410 3.725,191.200 3.974 L 189.000 4.427 185.866 9.181 L 182.733 13.934 183.801 19.067 C 187.200 35.413,187.992 39.195,188.390 41.000 C 188.830 42.995,188.842 43.007,193.683 46.163 L 198.535 49.326 204.967 48.026 C 208.505 47.311,212.227 46.554,213.237 46.344 C 215.019 45.972,215.181 45.809,218.613 40.902 L 222.152 35.843 221.034 30.422 C 220.418 27.440,219.855 24.936,219.783 24.859 C 219.638 24.704,205.492 27.586,205.252 27.819 C 205.171 27.898,205.399 29.263,205.758 30.854 C 206.258 33.069,206.299 33.815,205.931 34.042 C 205.121 34.543,202.713 34.875,202.407 34.528 C 202.055 34.128,198.360 16.707,198.581 16.486 C 198.964 16.102,202.155 15.599,202.400 15.884 C 202.551 16.058,202.889 17.211,203.154 18.447 L 203.634 20.694 210.584 19.247 C 218.989 17.497,218.276 18.272,216.969 12.311 L 215.881 7.346 211.162 4.073 C 208.567 2.273,206.209 0.817,205.922 0.837 C 205.635 0.857,202.700 1.470,199.400 2.198 M210.224 5.412 L 214.648 8.430 215.392 12.213 C 216.284 16.750,216.796 16.176,210.714 17.462 C 204.866 18.698,204.545 18.640,204.193 16.289 C 203.766 13.443,203.751 13.436,199.953 14.205 C 198.109 14.579,196.546 14.934,196.480 14.995 C 196.414 15.057,197.359 19.592,198.580 25.075 C 199.801 30.558,200.800 35.338,200.800 35.698 C 200.800 36.756,201.293 36.804,204.772 36.085 L 208.073 35.403 207.825 34.001 C 207.689 33.231,207.471 31.775,207.341 30.766 L 207.104 28.933 212.330 27.815 C 218.771 26.437,218.475 26.313,219.326 30.754 C 219.711 32.759,220.115 34.633,220.224 34.918 C 220.333 35.204,218.987 37.492,217.233 40.003 L 214.042 44.569 207.121 46.068 C 198.392 47.958,199.325 48.060,194.410 44.681 C 190.789 42.191,190.179 41.610,189.916 40.400 C 189.748 39.630,188.437 33.462,187.002 26.693 L 184.392 14.386 187.201 10.199 C 189.005 7.510,190.329 5.934,190.905 5.793 C 194.253 4.970,205.074 2.460,205.400 2.431 C 205.620 2.411,207.791 3.752,210.224 5.412 " stroke="none" fill="#be6f00" fill-rule="evenodd"></path><path id="path1" d="M201.698 1.305 C 199.661 1.758,198.075 2.208,198.172 2.305 C 198.269 2.402,200.150 2.090,202.352 1.610 L 206.356 0.739 211.134 4.053 L 215.912 7.367 216.818 11.688 C 217.317 14.064,217.803 15.930,217.899 15.835 C 217.994 15.739,217.667 13.762,217.172 11.442 L 216.271 7.222 211.359 3.811 C 208.657 1.935,206.211 0.418,205.923 0.441 C 205.636 0.463,203.734 0.852,201.698 1.305 M193.285 3.096 C 191.682 3.430,190.452 3.785,190.551 3.885 C 190.740 4.073,197.272 2.837,197.567 2.558 C 197.865 2.275,196.259 2.477,193.285 3.096 M203.000 3.016 L 201.000 3.556 202.800 3.327 C 203.790 3.201,204.960 2.952,205.400 2.774 C 206.647 2.270,205.242 2.412,203.000 3.016 M206.400 2.970 C 206.400 3.080,207.480 3.904,208.800 4.800 C 210.120 5.696,211.200 6.340,211.200 6.230 C 211.200 6.120,210.120 5.296,208.800 4.400 C 207.480 3.504,206.400 2.860,206.400 2.970 M185.372 9.352 L 182.341 13.904 182.825 16.364 C 183.091 17.717,183.390 18.743,183.489 18.644 C 183.589 18.545,183.458 17.442,183.199 16.194 L 182.727 13.924 185.766 9.362 C 187.437 6.853,188.714 4.800,188.604 4.800 C 188.494 4.800,187.040 6.848,185.372 9.352 M212.880 7.663 C 214.212 8.867,214.437 9.377,215.149 12.800 C 215.583 14.890,215.942 16.150,215.946 15.600 C 215.973 12.235,214.601 8.410,212.992 7.363 L 211.400 6.326 212.880 7.663 M186.637 11.031 C 185.381 12.918,184.440 14.673,184.545 14.931 C 184.679 15.258,184.746 15.243,184.768 14.882 C 184.786 14.597,185.668 13.067,186.729 11.482 C 189.021 8.059,189.299 7.600,189.084 7.600 C 188.994 7.600,187.893 9.144,186.637 11.031 M203.323 13.780 C 203.642 14.099,204.025 15.175,204.175 16.171 C 204.324 17.167,204.644 18.103,204.885 18.252 C 205.126 18.402,205.226 18.361,205.106 18.162 C 204.987 17.963,204.676 16.765,204.416 15.500 C 204.094 13.932,203.752 13.200,203.343 13.200 C 202.819 13.200,202.816 13.273,203.323 13.780 M201.675 15.848 C 202.047 15.958,202.436 16.443,202.541 16.925 C 202.700 17.658,202.720 17.639,202.666 16.804 C 202.621 16.128,202.343 15.782,201.800 15.727 C 201.224 15.669,201.189 15.702,201.675 15.848 M198.873 16.346 C 198.464 16.606,198.442 16.985,198.772 18.040 L 199.197 19.400 199.006 18.085 C 198.848 17.001,198.971 16.706,199.707 16.410 C 200.210 16.207,200.338 16.042,200.000 16.031 C 199.670 16.021,199.163 16.163,198.873 16.346 M203.014 19.188 C 203.265 20.920,203.544 21.164,204.800 20.747 L 205.800 20.415 204.725 20.547 C 203.794 20.662,203.595 20.488,203.232 19.240 L 202.814 17.800 203.014 19.188 M183.687 19.800 C 183.691 20.240,183.832 21.140,184.000 21.800 C 184.274 22.878,184.306 22.898,184.313 22.000 C 184.317 21.450,184.176 20.550,184.000 20.000 C 183.749 19.216,183.681 19.173,183.687 19.800 M199.217 20.033 C 199.326 23.607,202.328 34.609,203.218 34.696 C 204.120 34.784,204.133 34.763,203.378 34.438 C 202.687 34.140,202.314 32.948,201.033 26.942 C 199.618 20.307,199.174 18.618,199.217 20.033 M184.480 23.800 C 184.480 24.240,184.624 25.050,184.800 25.600 C 185.054 26.392,185.120 26.433,185.120 25.800 C 185.120 25.360,184.976 24.550,184.800 24.000 C 184.546 23.208,184.480 23.167,184.480 23.800 M215.685 25.096 C 214.082 25.430,212.852 25.785,212.951 25.885 C 213.140 26.073,219.672 24.837,219.967 24.558 C 220.265 24.275,218.659 24.477,215.685 25.096 M207.005 26.940 C 205.751 27.231,204.994 27.626,204.967 28.002 C 204.943 28.331,204.994 28.400,205.080 28.156 C 205.166 27.912,206.444 27.440,207.918 27.107 C 209.393 26.774,210.240 26.496,209.800 26.489 C 209.360 26.482,208.102 26.685,207.005 26.940 M185.286 27.400 C 185.281 27.840,185.508 29.100,185.791 30.200 C 186.074 31.300,186.309 31.840,186.314 31.400 C 186.319 30.960,186.092 29.700,185.809 28.600 C 185.526 27.500,185.291 26.960,185.286 27.400 M217.140 27.021 C 218.202 27.227,218.315 27.436,218.800 30.121 C 219.086 31.704,219.386 32.813,219.465 32.585 C 220.041 30.934,218.531 26.997,217.284 26.900 C 216.108 26.808,216.096 26.819,217.140 27.021 M209.600 28.400 C 208.808 28.654,208.767 28.720,209.400 28.720 C 209.840 28.720,210.650 28.576,211.200 28.400 C 211.992 28.146,212.033 28.080,211.400 28.080 C 210.960 28.080,210.150 28.224,209.600 28.400 M199.438 30.200 C 199.549 31.080,199.892 32.790,200.201 34.000 C 200.635 35.700,200.717 35.836,200.562 34.600 C 200.451 33.720,200.108 32.010,199.799 30.800 C 199.365 29.100,199.283 28.964,199.438 30.200 M207.217 29.900 C 207.240 31.331,208.305 36.058,208.359 34.967 C 208.382 34.508,208.192 33.096,207.937 31.829 C 207.553 29.917,207.570 29.464,208.037 29.169 C 208.491 28.881,208.464 28.811,207.900 28.806 C 207.397 28.802,207.205 29.110,207.217 29.900 M205.794 32.315 C 205.952 33.399,205.829 33.694,205.093 33.990 C 204.590 34.193,204.462 34.358,204.800 34.369 C 206.100 34.410,206.477 33.793,206.028 32.360 L 205.603 31.000 205.794 32.315 M219.729 34.400 C 219.810 36.078,214.383 44.247,213.000 44.528 C 212.239 44.683,212.240 44.694,213.041 44.746 C 213.683 44.787,214.590 43.782,216.874 40.500 C 220.658 35.063,220.426 35.530,220.014 34.166 C 219.661 33.001,219.661 33.001,219.729 34.400 M203.861 36.233 C 202.575 36.544,201.360 36.699,201.161 36.576 C 200.962 36.453,200.800 36.543,200.800 36.776 C 200.800 37.009,201.025 37.193,201.300 37.184 C 202.247 37.153,207.799 35.683,207.000 35.675 C 206.560 35.670,205.147 35.921,203.861 36.233 M187.680 39.000 C 187.680 39.440,187.824 40.250,188.000 40.800 C 188.254 41.592,188.320 41.633,188.320 41.000 C 188.320 40.560,188.176 39.750,188.000 39.200 C 187.746 38.408,187.680 38.367,187.680 39.000 M219.200 40.000 C 218.730 40.660,218.436 41.200,218.546 41.200 C 218.656 41.200,219.130 40.660,219.600 40.000 C 220.070 39.340,220.364 38.800,220.254 38.800 C 220.144 38.800,219.670 39.340,219.200 40.000 M190.032 40.838 C 190.014 41.189,190.405 41.819,190.900 42.238 C 191.792 42.994,191.794 42.993,191.152 42.200 C 190.796 41.760,190.405 41.130,190.284 40.800 C 190.097 40.291,190.058 40.296,190.032 40.838 M188.446 42.454 C 188.421 42.814,188.840 43.396,189.377 43.748 C 194.382 47.028,197.246 48.798,197.061 48.499 C 196.939 48.301,195.035 46.987,192.831 45.580 C 190.628 44.173,188.750 42.747,188.659 42.411 C 188.520 41.900,188.485 41.907,188.446 42.454 M216.167 44.378 C 215.593 45.246,214.825 46.035,214.461 46.132 C 213.863 46.290,213.865 46.312,214.481 46.354 C 214.869 46.380,215.694 45.626,216.400 44.600 C 217.081 43.610,217.542 42.800,217.425 42.800 C 217.307 42.800,216.741 43.510,216.167 44.378 M195.600 45.323 C 195.600 45.929,198.999 47.626,199.928 47.484 L 201.000 47.320 199.862 47.260 C 199.236 47.227,198.246 46.870,197.662 46.466 C 196.202 45.456,195.600 45.122,195.600 45.323 M206.600 45.791 C 205.500 46.074,204.960 46.309,205.400 46.314 C 205.840 46.319,207.100 46.092,208.200 45.809 C 209.300 45.526,209.840 45.291,209.400 45.286 C 208.960 45.281,207.700 45.508,206.600 45.791 M202.000 46.800 C 201.208 47.054,201.167 47.120,201.800 47.120 C 202.240 47.120,203.050 46.976,203.600 46.800 C 204.392 46.546,204.433 46.480,203.800 46.480 C 203.360 46.480,202.550 46.624,202.000 46.800 M204.800 48.042 C 201.830 48.687,198.981 49.144,198.470 49.057 C 197.794 48.943,197.660 49.020,197.978 49.338 C 198.365 49.725,210.971 47.515,211.567 46.956 C 211.940 46.606,209.922 46.930,204.800 48.042 " stroke="none" fill="#c17303" fill-rule="evenodd"></path><path id="path2" d="M0.000 25.000 L 0.000 50.000 200.000 50.000 L 400.000 50.000 400.000 25.000 L 400.000 0.000 303.200 0.000 C 249.960 0.000,206.400 0.083,206.400 0.184 C 206.400 0.285,208.623 1.911,211.340 3.798 L 216.280 7.228 217.379 12.442 C 217.983 15.310,218.415 17.716,218.339 17.789 C 218.262 17.861,214.901 18.633,210.868 19.502 C 202.544 21.297,203.245 21.453,202.607 17.655 C 202.316 15.917,202.308 15.910,200.892 16.140 C 198.725 16.492,198.726 16.426,200.742 25.600 L 202.631 34.200 203.959 34.136 C 205.879 34.044,206.014 33.707,205.366 30.629 C 205.045 29.105,204.921 27.729,205.091 27.573 C 205.479 27.215,219.601 24.267,219.830 24.496 C 219.922 24.589,220.535 27.170,221.191 30.232 L 222.384 35.800 218.842 40.997 L 215.300 46.193 212.550 46.817 C 211.038 47.160,207.280 47.955,204.200 48.584 L 198.600 49.728 193.500 46.423 C 190.695 44.605,188.400 43.006,188.400 42.869 C 188.400 42.733,187.036 36.165,185.368 28.276 L 182.336 13.931 185.178 9.665 C 186.741 7.319,188.246 5.104,188.522 4.743 C 188.861 4.301,191.569 3.546,196.813 2.432 C 201.096 1.522,204.960 0.615,205.400 0.416 C 205.880 0.199,164.897 0.043,103.100 0.027 L 0.000 0.000 0.000 25.000 M184.954 14.177 C 184.832 14.494,184.803 15.079,184.889 15.477 C 184.987 15.928,185.124 15.712,185.254 14.900 C 185.471 13.538,185.330 13.196,184.954 14.177 " stroke="none" fill="#df8300" fill-rule="evenodd"></path><path id="path3" d="M208.400 4.970 C 208.400 5.080,209.480 5.904,210.800 6.800 C 212.120 7.696,213.200 8.340,213.200 8.230 C 213.200 8.120,212.120 7.296,210.800 6.400 C 209.480 5.504,208.400 4.860,208.400 4.970 M188.083 9.700 C 185.874 12.999,185.280 14.001,185.887 13.400 C 186.524 12.769,190.447 6.800,190.224 6.800 C 190.114 6.800,189.151 8.105,188.083 9.700 M196.086 16.600 C 196.081 17.040,196.308 18.300,196.591 19.400 C 196.874 20.500,197.109 21.040,197.114 20.600 C 197.119 20.160,196.892 18.900,196.609 17.800 C 196.326 16.700,196.091 16.160,196.086 16.600 M216.000 27.600 C 215.196 27.857,215.157 27.923,215.800 27.932 C 216.240 27.938,216.960 27.789,217.400 27.600 C 218.419 27.162,217.368 27.162,216.000 27.600 M208.298 32.400 C 208.438 33.390,208.563 34.605,208.576 35.100 C 208.589 35.595,208.735 36.000,208.900 36.000 C 209.315 36.000,209.218 34.950,208.584 32.600 L 208.044 30.600 208.298 32.400 M199.210 31.700 C 199.218 32.140,199.539 33.741,200.211 36.700 C 200.323 37.195,200.716 37.600,201.084 37.600 C 201.689 37.600,201.693 37.552,201.122 37.100 C 200.774 36.825,200.270 35.385,200.000 33.900 C 199.555 31.449,199.185 30.419,199.210 31.700 M216.400 39.800 C 215.719 40.790,215.252 41.600,215.362 41.600 C 215.472 41.600,216.119 40.790,216.800 39.800 C 217.481 38.810,217.948 38.000,217.838 38.000 C 217.728 38.000,217.081 38.810,216.400 39.800 M210.800 44.400 C 210.008 44.654,209.967 44.720,210.600 44.720 C 211.040 44.720,211.850 44.576,212.400 44.400 C 213.192 44.146,213.233 44.080,212.600 44.080 C 212.160 44.080,211.350 44.224,210.800 44.400 M195.200 44.512 C 195.200 44.864,199.042 47.200,199.620 47.200 C 199.922 47.200,199.546 46.878,198.785 46.485 C 198.023 46.092,196.905 45.441,196.300 45.039 C 195.695 44.637,195.200 44.400,195.200 44.512 M203.200 46.000 C 202.408 46.254,202.367 46.320,203.000 46.320 C 203.440 46.320,204.250 46.176,204.800 46.000 C 205.592 45.746,205.633 45.680,205.000 45.680 C 204.560 45.680,203.750 45.824,203.200 46.000 " stroke="none" fill="#e09222" fill-rule="evenodd"></path><path id="path4" d="M198.165 4.958 L 190.530 6.566 187.896 10.583 L 185.261 14.600 187.375 24.600 C 188.538 30.100,189.812 36.178,190.208 38.107 L 190.928 41.613 195.039 44.234 L 199.151 46.855 206.412 45.332 L 213.673 43.808 216.604 39.569 L 219.535 35.330 218.717 31.565 C 218.267 29.494,217.861 27.754,217.815 27.699 C 217.691 27.550,208.400 29.467,208.180 29.686 C 208.078 29.789,208.286 31.170,208.644 32.756 C 209.429 36.232,209.790 35.852,204.786 36.822 C 200.505 37.652,200.035 37.571,199.998 36.000 C 199.990 35.670,199.010 30.810,197.820 25.200 C 196.630 19.590,195.787 14.865,195.948 14.700 C 196.224 14.416,202.876 12.827,203.865 12.809 C 204.121 12.804,204.571 13.891,204.865 15.224 C 205.159 16.557,205.580 17.652,205.800 17.657 C 207.245 17.686,215.198 15.815,215.188 15.448 C 215.181 15.202,214.866 13.616,214.488 11.924 L 213.800 8.847 209.800 6.099 L 205.800 3.350 198.165 4.958 " stroke="none" fill="#e49526" fill-rule="evenodd"></path></g></svg>