<svg id="svg" version="1.1" width="1000" height="125" xmlns="http://www.w3.org/2000/svg" xmlns:xlink="http://www.w3.org/1999/xlink" style="display: block;"><g id="svgg"><path id="path0" d="M203.200 1.668 C 201.330 2.066,195.390 3.319,190.000 4.452 C 184.610 5.585,180.171 6.532,180.135 6.556 C 180.071 6.599,182.113 16.401,182.543 18.117 C 182.722 18.831,183.051 19.000,184.260 19.000 L 185.756 19.000 187.489 27.182 C 189.342 35.929,189.360 36.400,187.836 36.400 C 187.292 36.400,186.772 36.535,186.679 36.700 C 186.504 37.011,188.927 48.661,189.229 48.962 C 189.421 49.153,197.298 47.598,208.400 45.178 C 214.242 43.905,215.926 43.392,216.400 42.743 C 222.090 34.947,222.072 35.040,219.839 24.731 C 218.871 20.259,217.675 14.620,217.181 12.200 C 216.687 9.780,216.088 7.551,215.848 7.246 C 215.474 6.770,208.143 1.715,207.000 1.145 C 206.780 1.035,205.070 1.270,203.200 1.668 M211.455 5.966 C 213.372 7.336,214.695 8.588,214.876 9.201 C 215.254 10.479,219.548 30.528,219.856 32.447 C 220.055 33.692,219.798 34.374,218.013 37.341 C 214.811 42.661,215.979 42.068,203.600 44.649 C 188.978 47.698,190.471 47.871,189.355 43.000 C 188.180 37.872,188.162 38.081,189.800 37.774 C 190.570 37.629,191.200 37.477,191.200 37.436 C 191.200 37.394,190.210 32.805,189.000 27.236 C 187.790 21.668,186.800 17.047,186.800 16.968 C 186.800 16.889,186.131 16.864,185.313 16.912 L 183.827 17.000 182.856 12.491 C 182.322 10.011,181.980 7.887,182.095 7.772 C 182.210 7.657,186.601 6.685,191.852 5.613 C 197.103 4.541,202.480 3.410,203.800 3.099 C 206.584 2.444,206.469 2.401,211.455 5.966 M200.887 13.588 C 199.284 13.976,197.886 14.381,197.779 14.488 C 197.671 14.595,198.607 19.276,199.857 24.891 L 202.130 35.099 204.565 34.540 C 209.211 33.473,208.928 34.584,206.948 25.200 C 205.996 20.690,205.020 16.055,204.780 14.900 C 204.540 13.745,204.221 12.819,204.072 12.842 C 203.922 12.864,202.489 13.200,200.887 13.588 M203.084 15.300 C 203.697 16.102,206.923 32.039,206.544 32.394 C 206.355 32.571,205.628 32.836,204.928 32.984 C 203.227 33.342,203.185 33.240,201.429 24.400 C 200.620 20.330,199.868 16.693,199.758 16.317 C 199.609 15.813,199.903 15.534,200.878 15.253 C 202.675 14.735,202.652 14.735,203.084 15.300 " stroke="none" fill="#30427b" fill-rule="evenodd"></path><path id="path1" d="" stroke="none" fill="#344680" fill-rule="evenodd"></path><path id="path2" d="" stroke="none" fill="#33457f" fill-rule="evenodd"></path><path id="path3" d="M0.000 25.000 L 0.000 50.000 200.000 50.000 L 400.000 50.000 400.000 25.000 L 400.000 0.000 200.000 0.000 L 0.000 0.000 0.000 25.000 M211.635 3.937 L 216.198 7.075 219.089 20.237 C 220.679 27.477,221.915 33.702,221.835 34.072 C 221.453 35.836,215.889 44.000,215.056 44.018 C 214.585 44.029,208.567 45.258,201.682 46.751 C 194.797 48.243,189.085 49.338,188.990 49.184 C 188.723 48.751,186.400 37.936,186.400 37.122 C 186.400 36.616,186.703 36.400,187.413 36.400 C 189.226 36.400,189.214 36.278,185.928 20.671 L 185.521 18.743 184.035 18.994 L 182.548 19.245 181.205 13.025 C 180.467 9.603,179.967 6.700,180.094 6.573 C 180.360 6.306,204.979 0.912,206.236 0.845 C 206.696 0.820,209.125 2.212,211.635 3.937 M203.000 3.391 C 200.456 4.045,201.163 4.141,204.131 3.545 C 206.287 3.112,206.472 3.141,207.998 4.151 C 208.879 4.734,209.600 5.125,209.600 5.020 C 209.600 4.564,206.540 2.804,205.807 2.838 C 205.363 2.860,204.100 3.108,203.000 3.391 M198.400 4.400 C 197.608 4.654,197.567 4.720,198.200 4.720 C 198.640 4.720,199.450 4.576,200.000 4.400 C 200.792 4.146,200.833 4.080,200.200 4.080 C 199.760 4.080,198.950 4.224,198.400 4.400 M182.249 7.921 C 182.140 8.097,182.303 9.222,182.612 10.421 C 183.047 12.108,183.127 12.238,182.966 11.000 C 182.851 10.120,182.669 9.100,182.562 8.733 C 182.441 8.318,182.638 7.995,183.083 7.879 C 183.711 7.716,183.716 7.687,183.124 7.646 C 182.752 7.621,182.358 7.744,182.249 7.921 M214.480 9.400 C 214.480 9.840,214.624 10.650,214.800 11.200 C 215.054 11.992,215.120 12.033,215.120 11.400 C 215.120 10.960,214.976 10.150,214.800 9.600 C 214.546 8.808,214.480 8.767,214.480 9.400 M215.286 13.000 C 215.281 13.440,215.508 14.700,215.791 15.800 C 216.074 16.900,216.309 17.440,216.314 17.000 C 216.319 16.560,216.092 15.300,215.809 14.200 C 215.526 13.100,215.291 12.560,215.286 13.000 M183.446 14.400 C 183.576 15.390,183.830 16.357,184.010 16.548 C 184.189 16.740,184.165 16.110,183.956 15.148 C 183.412 12.653,183.170 12.299,183.446 14.400 M204.880 14.200 C 204.880 14.640,205.024 15.450,205.200 16.000 C 205.454 16.792,205.520 16.833,205.520 16.200 C 205.520 15.760,205.376 14.950,205.200 14.400 C 204.946 13.608,204.880 13.567,204.880 14.200 M200.700 15.476 C 199.760 15.721,199.736 15.492,201.684 24.736 L 203.398 32.872 204.765 32.651 C 206.814 32.318,206.813 32.410,204.866 23.500 C 202.917 14.578,203.063 14.858,200.700 15.476 M216.480 18.600 C 216.480 19.040,216.624 19.850,216.800 20.400 C 217.054 21.192,217.120 21.233,217.120 20.600 C 217.120 20.160,216.976 19.350,216.800 18.800 C 216.546 18.008,216.480 17.967,216.480 18.600 M187.996 21.433 C 187.986 22.268,190.549 33.984,190.707 33.826 C 190.801 33.732,190.300 30.897,189.592 27.527 C 188.428 21.983,188.008 20.380,187.996 21.433 M206.480 21.800 C 206.480 22.240,206.624 23.050,206.800 23.600 C 207.054 24.392,207.120 24.433,207.120 23.800 C 207.120 23.360,206.976 22.550,206.800 22.000 C 206.546 21.208,206.480 21.167,206.480 21.800 M199.680 25.800 C 199.680 26.240,199.824 27.050,200.000 27.600 C 200.254 28.392,200.320 28.433,200.320 27.800 C 200.320 27.360,200.176 26.550,200.000 26.000 C 199.746 25.208,199.680 25.167,199.680 25.800 M207.686 27.400 C 207.681 27.840,207.908 29.100,208.191 30.200 C 208.474 31.300,208.709 31.840,208.714 31.400 C 208.719 30.960,208.492 29.700,208.209 28.600 C 207.926 27.500,207.691 26.960,207.686 27.400 M191.039 35.865 C 191.222 37.249,191.135 37.562,190.529 37.719 C 189.848 37.895,189.847 37.910,190.513 37.954 C 191.478 38.016,191.732 37.170,191.234 35.549 C 190.826 34.217,190.823 34.221,191.039 35.865 M218.153 36.100 C 216.776 38.436,216.686 38.635,217.387 37.800 C 218.200 36.832,218.900 35.600,218.638 35.600 C 218.533 35.600,218.315 35.825,218.153 36.100 M215.385 40.500 C 214.768 41.435,214.520 41.989,214.832 41.731 C 215.433 41.234,216.964 38.800,216.676 38.800 C 216.583 38.800,216.002 39.565,215.385 40.500 M188.880 39.800 C 188.880 40.240,189.024 41.050,189.200 41.600 C 189.454 42.392,189.520 42.433,189.520 41.800 C 189.520 41.360,189.376 40.550,189.200 40.000 C 188.946 39.208,188.880 39.167,188.880 39.800 M189.838 44.200 C 190.150 46.636,190.393 47.201,191.127 47.194 C 191.704 47.189,191.715 47.134,191.204 46.811 C 190.876 46.604,190.388 45.571,190.120 44.517 C 189.672 42.753,189.649 42.727,189.838 44.200 " stroke="none" fill="#384d91" fill-rule="evenodd"></path><path id="path4" d="M193.833 5.638 C 187.691 6.938,182.618 8.049,182.559 8.108 C 182.500 8.166,182.856 10.101,183.350 12.407 L 184.248 16.600 185.688 16.473 C 186.805 16.374,187.176 16.509,187.337 17.073 C 188.091 19.710,191.601 37.275,191.429 37.553 C 191.312 37.742,190.653 38.009,189.965 38.147 C 189.193 38.301,188.786 38.589,188.904 38.899 C 189.008 39.174,189.414 40.930,189.806 42.800 C 190.198 44.670,190.639 46.339,190.788 46.509 C 190.936 46.679,196.265 45.725,202.629 44.390 C 215.708 41.646,214.427 42.285,217.727 36.849 L 219.654 33.674 216.927 21.004 L 214.200 8.334 210.400 5.765 C 205.894 2.719,207.577 2.731,193.833 5.638 M205.334 15.100 C 207.509 24.926,209.257 33.677,209.079 33.855 C 208.844 34.090,201.909 35.650,201.778 35.498 C 201.511 35.186,197.219 14.248,197.387 14.080 C 197.559 13.908,203.458 12.499,204.268 12.436 C 204.530 12.416,204.999 13.589,205.334 15.100 " stroke="none" fill="#5668a1" fill-rule="evenodd"></path></g></svg>