<svg id="svg" version="1.1" width="1000" height="125" xmlns="http://www.w3.org/2000/svg" xmlns:xlink="http://www.w3.org/1999/xlink" style="display: block;"><g id="svgg"><path id="path0" d="M212.600 2.599 C 211.280 2.893,205.520 4.140,199.800 5.370 C 189.284 7.631,183.884 8.846,183.698 8.991 C 183.608 9.061,185.237 17.499,185.807 19.916 C 185.990 20.692,186.245 20.814,187.473 20.716 L 188.923 20.600 190.438 27.800 C 191.271 31.760,192.071 35.573,192.216 36.274 C 192.467 37.490,192.412 37.561,191.028 37.821 C 189.933 38.027,189.625 38.254,189.775 38.747 C 189.885 39.106,190.444 41.650,191.018 44.400 C 191.592 47.150,192.214 49.558,192.401 49.750 C 192.760 50.121,200.072 48.718,213.200 45.759 C 217.490 44.792,221.832 43.891,222.849 43.756 C 225.812 43.363,225.769 43.674,223.956 35.775 C 223.050 31.829,222.284 28.571,222.254 28.536 C 222.225 28.501,220.614 28.842,218.676 29.293 C 214.415 30.284,214.744 30.606,213.451 24.178 C 212.035 17.140,211.853 17.757,215.579 16.956 C 220.093 15.986,219.878 16.654,218.177 8.854 C 216.486 1.104,216.954 1.628,212.600 2.599 M216.888 8.974 C 218.297 15.363,218.531 14.902,213.337 15.937 C 207.868 17.026,207.200 17.033,207.200 16.000 C 207.200 15.037,207.349 15.043,203.568 15.856 L 200.517 16.511 201.119 18.956 C 201.450 20.300,201.760 21.452,201.809 21.515 C 201.858 21.579,203.908 21.220,206.365 20.718 C 211.577 19.653,211.162 19.392,212.171 24.363 C 213.070 28.792,213.284 28.523,207.975 29.623 L 203.538 30.542 203.793 31.971 C 204.462 35.712,204.809 36.484,205.725 36.271 C 206.206 36.160,207.620 35.848,208.866 35.578 L 211.132 35.088 210.917 33.764 C 210.673 32.260,210.111 32.525,216.679 31.046 C 221.672 29.921,221.233 29.580,222.535 35.600 C 224.102 42.850,224.541 42.078,218.100 43.388 C 215.075 44.003,209.090 45.292,204.800 46.252 C 200.510 47.212,196.169 48.108,195.153 48.243 L 193.307 48.489 192.637 45.544 C 191.296 39.651,191.307 39.344,192.879 39.049 L 194.251 38.792 192.130 29.496 C 190.963 24.383,190.006 19.865,190.004 19.455 C 190.001 18.821,189.792 18.750,188.597 18.974 C 186.939 19.285,186.908 19.229,185.811 13.876 C 184.923 9.549,184.341 10.008,193.000 8.213 C 196.960 7.392,203.260 6.036,207.000 5.199 C 216.401 3.096,215.518 2.759,216.888 8.974 M206.179 17.858 C 206.505 19.156,206.213 19.462,204.318 19.810 C 202.949 20.062,202.815 20.001,202.567 19.012 C 202.201 17.553,202.695 17.184,205.457 16.854 C 205.708 16.825,206.033 17.276,206.179 17.858 M209.325 32.300 C 209.584 33.612,209.046 34.216,207.336 34.532 C 205.976 34.783,205.600 34.366,205.600 32.601 C 205.600 30.813,208.976 30.540,209.325 32.300 " stroke="none" fill="#b5ba28" fill-rule="evenodd"></path><path id="path1" d="" stroke="none" fill="#b7bc2a" fill-rule="evenodd"></path><path id="path2" d="M217.139 4.019 C 217.467 5.547,217.808 6.726,217.896 6.638 C 218.130 6.404,217.141 1.611,216.817 1.411 C 216.666 1.317,216.811 2.491,217.139 4.019 M212.400 2.184 C 211.190 2.469,206.172 3.571,201.249 4.634 C 196.326 5.696,192.478 6.626,192.699 6.700 C 193.054 6.818,214.798 2.230,215.800 1.825 C 216.692 1.464,214.457 1.700,212.400 2.184 M208.463 4.939 C 205.528 5.619,203.296 6.232,203.504 6.301 C 203.712 6.371,206.368 5.874,209.406 5.199 C 215.857 3.764,215.228 3.406,216.439 9.200 C 217.644 14.967,217.714 14.473,215.600 15.067 L 213.800 15.573 215.600 15.345 C 216.590 15.220,217.539 14.988,217.709 14.830 C 217.963 14.594,216.521 6.806,215.759 4.300 C 215.484 3.395,214.914 3.445,208.463 4.939 M191.504 8.562 C 184.350 10.135,184.922 9.490,186.072 14.677 L 187.030 19.000 188.431 18.893 L 189.831 18.786 191.792 27.784 C 192.870 32.732,193.827 36.706,193.919 36.614 C 194.010 36.523,193.211 32.378,192.143 27.404 L 190.202 18.360 188.803 18.480 L 187.404 18.600 186.518 14.604 C 185.455 9.811,184.861 10.397,192.400 8.804 C 195.810 8.084,198.675 7.428,198.767 7.347 C 199.169 6.992,196.997 7.355,191.504 8.562 M218.080 7.800 C 218.080 8.240,218.224 9.050,218.400 9.600 C 218.654 10.392,218.720 10.433,218.720 9.800 C 218.720 9.360,218.576 8.550,218.400 8.000 C 218.146 7.208,218.080 7.167,218.080 7.800 M184.100 8.282 C 183.134 8.468,182.989 9.361,183.626 11.200 C 183.885 11.949,183.918 11.785,183.759 10.546 C 183.548 8.911,183.562 8.888,185.073 8.488 C 186.572 8.090,185.868 7.942,184.100 8.282 M203.800 15.425 C 201.845 15.961,202.701 15.945,205.700 15.389 C 207.047 15.139,207.200 15.197,207.200 15.955 C 207.200 16.623,207.430 16.789,208.300 16.746 C 209.243 16.699,209.272 16.666,208.500 16.518 C 207.937 16.409,207.600 16.055,207.600 15.572 C 207.600 14.654,206.735 14.621,203.800 15.425 M200.286 16.300 C 200.197 16.465,200.391 17.815,200.718 19.300 C 201.406 22.430,201.069 22.322,206.510 21.157 C 211.133 20.167,210.697 19.922,211.660 24.055 C 212.653 28.320,212.791 28.142,207.633 29.211 C 203.660 30.034,203.205 30.216,203.246 30.965 C 203.279 31.550,203.344 31.608,203.465 31.158 C 203.588 30.695,204.874 30.256,208.058 29.588 C 213.256 28.497,213.116 28.701,212.004 23.816 C 211.001 19.413,211.356 19.598,206.200 20.800 C 204.313 21.240,202.518 21.600,202.212 21.600 C 201.475 21.600,200.329 16.735,200.965 16.306 C 201.268 16.102,201.255 16.010,200.924 16.006 C 200.662 16.003,200.374 16.135,200.286 16.300 M202.432 18.024 C 202.342 19.787,205.524 20.617,206.147 18.993 C 206.303 18.588,206.113 18.597,205.273 19.035 C 203.738 19.836,203.319 19.743,202.865 18.500 C 202.644 17.895,202.449 17.681,202.432 18.024 M212.431 18.138 C 212.389 19.149,214.530 29.410,214.685 28.944 C 214.754 28.738,214.282 26.056,213.636 22.985 C 212.990 19.913,212.448 17.732,212.431 18.138 M185.237 18.600 C 185.171 20.630,185.640 21.258,187.127 21.130 L 188.547 21.007 189.679 26.404 C 191.593 35.531,192.084 37.649,192.249 37.485 C 192.373 37.360,190.038 25.745,188.992 21.284 C 188.803 20.481,188.608 20.400,187.406 20.625 C 186.142 20.862,186.016 20.794,185.783 19.741 C 185.397 17.999,185.266 17.725,185.237 18.600 M221.400 28.206 C 221.180 28.285,219.595 28.651,217.878 29.020 C 216.161 29.388,214.844 29.777,214.950 29.883 C 215.117 30.051,219.734 29.147,221.657 28.570 C 222.146 28.424,222.417 28.762,222.716 29.887 C 222.937 30.719,223.136 31.097,223.159 30.726 C 223.214 29.827,222.499 27.992,222.110 28.032 C 221.939 28.049,221.620 28.127,221.400 28.206 M215.800 31.218 C 214.040 31.646,212.176 32.095,211.659 32.216 C 210.826 32.411,210.748 32.595,210.977 33.818 C 211.120 34.578,211.150 35.200,211.044 35.200 C 210.939 35.200,209.549 35.474,207.956 35.809 C 205.627 36.299,204.995 36.319,204.736 35.909 C 204.500 35.538,204.411 35.590,204.406 36.100 C 204.399 36.951,204.249 36.950,208.310 36.144 L 211.620 35.486 211.510 34.083 L 211.400 32.679 215.400 31.759 C 221.492 30.357,220.889 29.986,222.132 35.900 C 222.721 38.705,223.203 41.205,223.202 41.455 C 223.201 41.705,222.022 42.132,220.582 42.403 C 219.142 42.675,218.045 42.978,218.143 43.076 C 218.515 43.448,223.279 42.259,223.476 41.746 C 223.589 41.451,223.169 38.822,222.541 35.905 L 221.400 30.600 220.200 30.520 C 219.540 30.476,217.560 30.790,215.800 31.218 M206.100 31.456 C 205.575 31.677,205.435 33.105,205.836 34.150 C 206.086 34.800,208.125 34.659,209.061 33.927 C 210.564 32.752,208.033 30.640,206.100 31.456 M208.900 32.610 C 209.122 33.773,209.022 33.870,207.407 34.060 C 206.169 34.205,205.665 33.449,206.154 32.177 C 206.558 31.124,208.680 31.458,208.900 32.610 M191.600 39.785 C 191.600 41.919,193.370 48.401,193.955 48.409 C 194.961 48.422,210.016 45.083,209.822 44.889 C 209.728 44.794,206.125 45.482,201.817 46.417 C 197.508 47.352,193.904 48.037,193.807 47.941 C 193.147 47.280,191.950 39.878,192.452 39.560 C 192.883 39.286,192.851 39.211,192.300 39.206 C 191.915 39.203,191.600 39.463,191.600 39.785 M190.000 41.033 C 189.999 41.918,191.733 50.000,191.890 49.843 C 192.073 49.660,190.433 41.121,190.159 40.833 C 190.071 40.742,190.000 40.832,190.000 41.033 M212.200 44.191 C 211.100 44.474,210.560 44.709,211.000 44.714 C 211.440 44.719,212.700 44.492,213.800 44.209 C 214.900 43.926,215.440 43.691,215.000 43.686 C 214.560 43.681,213.300 43.908,212.200 44.191 M211.600 46.138 C 207.530 47.044,204.470 47.833,204.800 47.891 C 205.130 47.948,208.910 47.203,213.200 46.235 C 217.490 45.266,220.550 44.478,220.000 44.482 C 219.450 44.487,215.670 45.232,211.600 46.138 M196.400 49.400 C 195.190 49.681,194.650 49.927,195.200 49.947 C 195.750 49.968,197.100 49.734,198.200 49.428 C 200.699 48.733,199.367 48.712,196.400 49.400 " stroke="none" fill="#b8bd2b" fill-rule="evenodd"></path><path id="path3" d="M0.000 25.000 L 0.000 50.000 95.800 50.000 C 149.217 50.000,191.600 49.847,191.600 49.655 C 191.600 49.191,189.642 39.579,189.373 38.722 C 189.209 38.199,189.486 37.983,190.580 37.777 C 191.361 37.631,191.992 37.396,191.982 37.255 C 191.972 37.115,191.194 33.402,190.254 29.004 L 188.545 21.008 187.110 21.131 C 185.816 21.243,185.654 21.144,185.454 20.127 C 185.332 19.507,184.748 16.703,184.155 13.895 C 183.562 11.087,183.150 8.729,183.239 8.655 C 183.384 8.535,200.729 4.707,212.302 2.241 C 214.778 1.714,216.873 1.399,216.957 1.541 C 217.279 2.086,220.072 16.062,219.894 16.239 C 219.791 16.342,218.153 16.726,216.254 17.092 C 213.881 17.549,212.800 17.933,212.800 18.316 C 212.800 18.861,214.864 29.288,215.016 29.513 C 215.058 29.575,216.692 29.269,218.646 28.834 C 222.994 27.864,222.496 27.273,224.190 35.408 C 224.968 39.143,225.685 42.419,225.785 42.687 C 226.076 43.475,222.192 44.458,203.808 48.249 C 200.073 49.020,196.938 49.729,196.842 49.825 C 196.745 49.921,242.417 50.000,298.333 50.000 L 400.000 50.000 400.000 25.000 L 400.000 0.000 200.000 0.000 L 0.000 0.000 0.000 25.000 M203.700 17.482 C 202.765 17.662,202.575 18.225,203.144 19.123 C 203.838 20.217,206.222 19.044,205.759 17.836 C 205.513 17.195,205.342 17.166,203.700 17.482 M206.154 32.177 C 205.665 33.449,206.169 34.205,207.407 34.060 C 209.022 33.870,209.122 33.773,208.900 32.610 C 208.680 31.458,206.558 31.124,206.154 32.177 " stroke="none" fill="#f2f835" fill-rule="evenodd"></path><path id="path4" d="M205.400 6.186 C 200.120 7.332,193.791 8.683,191.336 9.189 C 185.389 10.414,185.746 10.013,186.646 14.458 L 187.405 18.200 188.743 18.222 C 190.278 18.248,190.504 18.569,191.119 21.600 C 192.259 27.210,194.449 37.471,194.643 38.108 C 194.803 38.633,194.500 38.966,193.470 39.396 L 192.082 39.977 192.851 43.488 C 193.274 45.420,193.693 47.206,193.782 47.459 C 193.942 47.915,195.396 47.641,215.400 43.386 C 223.737 41.613,223.234 41.856,222.808 39.800 C 222.626 38.920,222.164 36.670,221.781 34.800 C 220.839 30.200,221.895 30.449,212.500 32.608 C 211.785 32.773,211.600 33.093,211.600 34.164 C 211.600 35.510,211.593 35.515,208.751 36.157 C 204.135 37.199,204.071 37.148,203.352 31.903 L 203.103 30.088 207.052 29.213 C 209.223 28.732,211.295 28.257,211.656 28.156 C 212.209 28.003,211.322 21.262,210.652 20.525 C 210.614 20.484,208.607 20.869,206.192 21.380 C 200.967 22.486,201.416 22.666,200.615 19.145 C 199.843 15.750,199.474 16.208,203.737 15.258 L 207.249 14.476 207.630 15.480 C 207.925 16.255,208.216 16.434,208.906 16.267 C 209.398 16.147,211.465 15.733,213.500 15.347 C 216.289 14.818,217.200 14.491,217.200 14.020 C 217.200 13.445,215.213 4.261,215.065 4.152 C 215.029 4.125,210.680 5.041,205.400 6.186 " stroke="none" fill="#f5fa68" fill-rule="evenodd"></path></g></svg>