<svg id="svg" version="1.1" width="1000" height="125" xmlns="http://www.w3.org/2000/svg" xmlns:xlink="http://www.w3.org/1999/xlink" style="display: block;"><g id="svgg"><path id="path0" d="M213.200 0.862 C 212.210 1.069,208.520 1.858,205.000 2.615 C 201.480 3.372,195.111 4.708,190.846 5.584 C 186.581 6.459,183.022 7.245,182.937 7.330 C 182.852 7.414,183.372 10.128,184.091 13.360 L 185.400 19.236 186.767 19.118 C 188.379 18.979,188.147 18.379,190.211 28.000 C 190.990 31.630,191.720 34.905,191.834 35.278 C 191.992 35.799,191.710 36.018,190.620 36.223 C 188.902 36.545,188.912 36.121,190.466 43.105 L 191.736 48.811 193.168 48.559 C 195.743 48.107,210.450 44.883,210.592 44.740 C 210.668 44.663,210.161 41.929,209.466 38.664 L 208.202 32.727 206.902 32.938 C 205.771 33.122,205.570 33.021,205.353 32.156 C 205.023 30.841,204.872 30.919,209.650 29.920 L 213.826 29.046 212.663 23.623 C 211.235 16.967,211.664 17.369,207.055 18.368 C 202.200 19.420,202.484 19.455,202.165 17.756 C 201.852 16.088,202.311 15.616,204.250 15.606 C 205.307 15.601,205.535 15.776,205.729 16.744 L 205.957 17.887 211.855 16.568 C 215.099 15.842,218.143 15.150,218.621 15.030 L 219.490 14.812 218.386 9.906 C 217.779 7.208,217.071 3.965,216.813 2.700 C 216.299 0.182,216.343 0.205,213.200 0.862 M215.341 2.700 C 215.833 4.467,217.656 13.675,217.536 13.780 C 217.164 14.103,207.471 15.967,207.160 15.775 C 206.962 15.653,206.800 15.113,206.800 14.576 C 206.800 13.416,206.844 13.420,202.983 14.268 C 200.236 14.872,199.964 15.016,200.165 15.768 C 200.288 16.226,200.589 17.608,200.834 18.840 L 201.281 21.080 205.540 20.161 C 210.565 19.075,210.141 18.808,211.208 23.737 C 212.220 28.415,212.651 27.809,207.569 28.840 C 202.563 29.855,203.048 29.416,203.660 32.381 L 204.170 34.847 205.585 34.723 L 207.000 34.600 207.899 38.200 C 209.354 44.022,209.877 43.484,200.884 45.415 C 196.361 46.385,193.071 46.915,192.935 46.694 C 192.532 46.043,190.864 38.220,191.060 37.902 C 191.163 37.736,191.692 37.600,192.236 37.600 C 193.747 37.600,193.723 37.276,191.453 27.000 L 189.332 17.400 187.918 17.511 L 186.504 17.622 185.669 13.911 C 184.462 8.543,184.464 8.682,185.600 8.313 C 186.900 7.891,213.591 2.091,214.473 2.039 C 214.843 2.018,215.234 2.315,215.341 2.700 " stroke="none" fill="#29964f" fill-rule="evenodd"></path><path id="path1" d="M208.400 17.276 C 207.410 17.491,206.346 17.913,206.034 18.213 C 205.570 18.662,205.923 18.654,208.011 18.167 C 209.410 17.840,210.759 17.652,211.010 17.749 C 211.261 17.845,211.467 17.671,211.467 17.362 C 211.467 16.730,210.982 16.716,208.400 17.276 " stroke="none" fill="#2d9953" fill-rule="evenodd"></path><path id="path2" d="M205.600 17.704 C 205.600 18.055,205.285 18.424,204.900 18.524 C 204.244 18.696,204.245 18.710,204.913 18.754 C 205.636 18.801,206.306 17.773,205.849 17.316 C 205.712 17.179,205.600 17.353,205.600 17.704 M189.680 41.000 C 189.680 41.440,189.824 42.250,190.000 42.800 C 190.254 43.592,190.320 43.633,190.320 43.000 C 190.320 42.560,190.176 41.750,190.000 41.200 C 189.746 40.408,189.680 40.367,189.680 41.000 " stroke="none" fill="#2d9a53" fill-rule="evenodd"></path><path id="path3" d="M0.000 25.000 L 0.000 50.000 200.000 50.000 L 400.000 50.000 400.000 25.000 L 400.000 0.000 308.400 0.000 C 221.425 0.000,216.800 0.035,216.808 0.700 C 216.813 1.085,217.442 4.190,218.206 7.600 C 218.970 11.010,219.597 14.112,219.598 14.492 C 219.600 15.225,219.541 15.246,214.823 16.212 C 213.185 16.547,211.782 16.884,211.705 16.961 C 211.629 17.038,212.125 19.654,212.808 22.774 C 214.333 29.735,214.546 29.212,209.770 30.214 C 206.264 30.950,205.785 31.153,205.669 31.945 C 205.552 32.755,205.684 32.830,207.035 32.721 L 208.532 32.600 209.789 38.724 C 210.480 42.092,210.908 44.933,210.741 45.037 C 210.337 45.286,191.512 49.256,191.417 49.112 C 191.203 48.788,188.728 36.742,188.852 36.636 C 188.934 36.566,189.540 36.331,190.200 36.113 C 190.860 35.895,191.365 35.466,191.322 35.159 C 191.206 34.324,188.373 20.705,188.154 19.928 C 188.007 19.410,187.658 19.306,186.623 19.474 C 185.038 19.731,185.251 20.218,183.652 12.672 C 182.823 8.764,182.615 7.100,182.940 6.992 C 183.193 6.908,188.620 5.737,195.000 4.390 C 201.380 3.043,208.490 1.519,210.800 1.004 L 215.000 0.068 107.500 0.034 L 0.000 0.000 0.000 25.000 M213.875 2.659 C 214.357 2.764,214.842 3.153,214.952 3.525 C 215.098 4.011,215.131 3.976,215.073 3.400 C 215.018 2.857,214.672 2.579,213.996 2.534 C 213.161 2.480,213.142 2.500,213.875 2.659 M215.280 5.000 C 215.280 5.440,215.424 6.250,215.600 6.800 C 215.854 7.592,215.920 7.633,215.920 7.000 C 215.920 6.560,215.776 5.750,215.600 5.200 C 215.346 4.408,215.280 4.367,215.280 5.000 M203.600 15.956 C 201.558 16.521,202.277 19.066,204.350 18.611 C 205.608 18.335,205.900 17.646,205.357 16.233 C 205.095 15.548,205.082 15.546,203.600 15.956 M209.275 19.848 C 209.647 19.958,210.036 20.443,210.141 20.925 C 210.300 21.658,210.320 21.639,210.266 20.804 C 210.221 20.128,209.943 19.782,209.400 19.727 C 208.824 19.669,208.789 19.702,209.275 19.848 M211.232 26.672 C 211.211 27.245,210.891 27.604,210.300 27.718 L 209.400 27.891 210.313 27.946 C 211.260 28.002,211.827 27.203,211.469 26.313 C 211.356 26.031,211.249 26.192,211.232 26.672 M192.880 32.200 C 192.880 32.640,193.024 33.450,193.200 34.000 C 193.454 34.792,193.520 34.833,193.520 34.200 C 193.520 33.760,193.376 32.950,193.200 32.400 C 192.946 31.608,192.880 31.567,192.880 32.200 " stroke="none" fill="#30b05d" fill-rule="evenodd"></path><path id="path4" d="M207.600 4.054 C 204.630 4.707,198.452 6.025,193.871 6.983 C 189.290 7.941,185.463 8.804,185.366 8.901 C 185.269 8.997,185.579 10.883,186.055 13.092 L 186.919 17.108 188.380 16.912 L 189.842 16.716 191.780 25.809 C 194.021 36.327,194.160 37.705,193.000 37.925 C 192.560 38.009,192.058 38.211,191.885 38.374 C 191.622 38.621,192.983 45.916,193.362 46.295 C 193.516 46.449,207.933 43.400,208.170 43.163 C 208.267 43.066,207.970 41.216,207.510 39.051 L 206.673 35.116 205.354 35.330 C 203.883 35.569,203.947 35.670,203.193 31.868 C 202.632 29.042,202.226 29.413,207.013 28.380 C 211.870 27.332,211.437 27.907,210.603 23.614 C 209.798 19.471,210.164 19.662,205.200 20.800 C 203.330 21.229,201.603 21.584,201.363 21.590 C 200.942 21.600,199.319 14.948,199.659 14.608 C 199.966 14.301,206.794 12.927,206.998 13.132 C 207.109 13.243,207.200 13.669,207.200 14.079 C 207.200 15.298,208.235 15.358,212.630 14.393 C 217.475 13.330,217.205 13.902,215.800 7.678 C 215.250 5.241,214.800 3.147,214.800 3.024 C 214.800 2.608,213.019 2.862,207.600 4.054 " stroke="none" fill="#4fbc75" fill-rule="evenodd"></path></g></svg>