<svg id="svg" version="1.1" width="1000" height="125" xmlns="http://www.w3.org/2000/svg" xmlns:xlink="http://www.w3.org/1999/xlink" style="display: block;"><g id="svgg"><path id="path0" d="M199.600 2.365 C 196.850 2.974,193.430 3.694,192.000 3.965 C 188.863 4.559,189.108 4.331,185.620 9.907 C 182.269 15.262,182.365 13.620,184.750 24.722 C 185.823 29.715,187.104 35.795,187.598 38.233 L 188.495 42.667 193.451 45.955 C 196.177 47.763,198.547 49.156,198.719 49.050 C 198.890 48.944,201.813 48.305,205.215 47.629 C 208.617 46.953,213.982 45.825,217.139 45.122 L 222.877 43.844 222.620 42.222 C 222.479 41.330,221.664 37.360,220.810 33.400 C 219.955 29.440,218.874 24.225,218.406 21.811 C 217.939 19.398,217.477 17.343,217.379 17.246 C 217.233 17.100,202.788 19.762,201.347 20.201 C 201.012 20.303,201.026 20.952,201.397 22.670 C 201.674 23.951,202.216 26.575,202.602 28.500 C 203.287 31.925,203.327 32.000,204.451 32.000 C 206.097 32.000,206.138 33.867,204.500 34.226 C 203.895 34.358,203.204 34.525,202.964 34.596 C 201.986 34.887,201.623 33.868,200.041 26.400 C 199.133 22.110,198.309 18.239,198.211 17.797 C 197.950 16.618,198.413 16.150,200.158 15.829 C 201.914 15.506,202.384 15.899,202.394 17.700 C 202.397 18.305,202.578 18.800,202.796 18.800 C 203.164 18.800,215.645 16.095,216.649 15.797 C 217.342 15.592,215.423 7.554,214.519 6.882 C 213.065 5.800,205.274 1.201,204.942 1.229 C 204.754 1.245,202.350 1.756,199.600 2.365 M209.382 5.510 L 213.765 8.200 214.532 11.318 C 215.452 15.059,215.932 14.545,210.390 15.758 C 203.596 17.246,203.900 17.258,203.479 15.500 C 203.282 14.675,202.913 14.000,202.660 14.000 C 201.911 14.001,196.365 15.102,196.181 15.286 C 196.041 15.426,200.387 35.924,200.642 36.328 C 201.065 36.997,207.632 34.982,207.447 34.240 C 207.332 33.778,207.115 32.626,206.965 31.680 C 206.706 30.055,206.631 29.974,205.591 30.202 C 204.383 30.467,204.383 30.465,203.182 24.268 C 202.629 21.415,201.856 21.922,209.369 20.213 C 215.929 18.722,216.377 18.733,216.394 20.391 C 216.397 20.716,217.289 25.036,218.375 29.991 C 219.461 34.946,220.468 39.833,220.613 40.851 L 220.876 42.703 217.938 43.315 C 216.322 43.651,211.490 44.666,207.200 45.570 C 202.910 46.474,199.181 47.211,198.914 47.207 C 198.561 47.202,191.797 43.039,190.062 41.759 C 189.986 41.703,189.228 38.359,188.377 34.329 C 187.526 30.298,186.283 24.573,185.615 21.606 C 184.056 14.687,183.965 15.377,187.094 10.498 C 190.117 5.782,189.864 5.952,195.600 4.813 C 197.910 4.354,200.790 3.734,202.000 3.434 C 203.210 3.134,204.380 2.873,204.600 2.854 C 204.820 2.835,206.972 4.030,209.382 5.510 " stroke="none" fill="#d96ad6" fill-rule="evenodd"></path><path id="path1" d="M203.600 1.234 C 202.746 1.537,202.798 1.561,203.952 1.394 C 204.889 1.259,205.719 1.455,206.652 2.032 C 207.393 2.490,208.000 2.775,208.000 2.665 C 208.000 2.371,205.366 0.793,204.953 0.840 C 204.759 0.862,204.150 1.039,203.600 1.234 M203.600 3.204 C 202.736 3.484,202.799 3.519,204.061 3.464 C 204.865 3.429,205.439 3.265,205.337 3.100 C 205.124 2.754,204.959 2.763,203.600 3.204 M208.200 5.090 C 208.420 5.300,209.320 5.876,210.200 6.370 C 211.080 6.865,211.440 6.970,211.000 6.604 C 210.106 5.861,207.572 4.491,208.200 5.090 M213.191 5.881 C 213.737 6.277,214.502 6.915,214.891 7.300 C 215.281 7.685,215.600 7.832,215.600 7.627 C 215.600 7.422,215.105 6.912,214.500 6.493 C 213.045 5.486,211.920 4.960,213.191 5.881 M189.293 7.100 C 188.286 8.555,187.760 9.680,188.681 8.409 C 189.077 7.863,189.715 7.098,190.100 6.709 C 190.485 6.319,190.632 6.000,190.427 6.000 C 190.222 6.000,189.712 6.495,189.293 7.100 M212.600 7.792 C 213.040 8.142,213.621 9.187,213.892 10.114 L 214.384 11.800 214.156 10.203 C 213.880 8.272,213.793 8.119,212.678 7.580 C 211.817 7.164,211.815 7.168,212.600 7.792 M185.753 8.900 C 184.376 11.236,184.286 11.435,184.987 10.600 C 185.800 9.632,186.500 8.400,186.238 8.400 C 186.133 8.400,185.915 8.625,185.753 8.900 M185.642 12.735 C 184.912 13.872,184.419 15.151,184.446 15.835 C 184.489 16.917,184.512 16.897,184.772 15.565 C 184.927 14.776,185.417 13.606,185.861 12.965 C 186.955 11.387,187.282 10.800,187.065 10.800 C 186.965 10.800,186.325 11.671,185.642 12.735 M183.233 12.947 C 182.775 13.688,182.418 14.723,182.441 15.247 C 182.476 16.060,182.524 16.023,182.772 14.992 C 182.931 14.327,183.383 13.292,183.777 12.692 C 184.170 12.091,184.396 11.600,184.279 11.600 C 184.161 11.600,183.691 12.206,183.233 12.947 M209.629 17.346 C 204.518 18.481,201.802 19.652,204.467 19.572 C 205.353 19.545,205.360 19.525,204.600 19.168 C 204.011 18.891,204.207 18.852,205.339 19.021 C 206.458 19.188,206.800 19.123,206.589 18.783 C 206.379 18.442,206.669 18.387,207.650 18.581 C 208.697 18.789,208.865 18.748,208.400 18.400 C 207.928 18.047,208.061 18.002,209.017 18.189 C 209.686 18.320,211.486 18.148,213.017 17.807 C 214.548 17.465,216.212 17.094,216.716 16.981 C 217.836 16.731,217.492 15.987,216.276 16.032 C 215.794 16.050,212.803 16.641,209.629 17.346 M185.280 19.800 C 185.280 20.240,185.424 21.050,185.600 21.600 C 185.854 22.392,185.920 22.433,185.920 21.800 C 185.920 21.360,185.776 20.550,185.600 20.000 C 185.346 19.208,185.280 19.167,185.280 19.800 M183.686 21.000 C 183.681 21.440,183.908 22.700,184.191 23.800 C 184.474 24.900,184.709 25.440,184.714 25.000 C 184.719 24.560,184.492 23.300,184.209 22.200 C 183.926 21.100,183.691 20.560,183.686 21.000 M199.253 22.200 C 199.229 23.150,200.704 29.272,200.746 28.400 C 200.762 28.070,200.437 26.360,200.024 24.600 C 199.611 22.840,199.264 21.760,199.253 22.200 M203.680 26.200 C 203.680 26.640,203.824 27.450,204.000 28.000 C 204.254 28.792,204.320 28.833,204.320 28.200 C 204.320 27.760,204.176 26.950,204.000 26.400 C 203.746 25.608,203.680 25.567,203.680 26.200 M184.886 26.600 C 184.881 27.040,185.108 28.300,185.391 29.400 C 185.674 30.500,185.909 31.040,185.914 30.600 C 185.919 30.160,185.692 28.900,185.409 27.800 C 185.126 26.700,184.891 26.160,184.886 26.600 M219.680 27.800 C 219.680 28.240,219.824 29.050,220.000 29.600 C 220.254 30.392,220.320 30.433,220.320 29.800 C 220.320 29.360,220.176 28.550,220.000 28.000 C 219.746 27.208,219.680 27.167,219.680 27.800 M200.846 29.433 C 200.757 30.269,201.713 34.400,201.997 34.400 C 202.154 34.400,202.061 33.545,201.790 32.500 C 201.519 31.455,201.206 30.240,201.095 29.800 C 200.984 29.360,200.872 29.195,200.846 29.433 M203.450 32.319 C 203.325 32.521,203.693 32.595,204.274 32.484 C 205.189 32.309,205.295 32.393,205.099 33.142 C 204.976 33.614,205.051 34.000,205.265 34.000 C 205.480 34.000,205.598 33.595,205.528 33.100 C 205.397 32.177,203.888 31.610,203.450 32.319 M220.880 33.400 C 220.880 33.840,221.024 34.650,221.200 35.200 C 221.454 35.992,221.520 36.033,221.520 35.400 C 221.520 34.960,221.376 34.150,221.200 33.600 C 220.946 32.808,220.880 32.767,220.880 33.400 M197.952 46.912 C 198.145 47.105,198.819 47.198,199.451 47.119 C 200.509 46.987,200.481 46.959,199.100 46.768 C 198.240 46.649,197.750 46.710,197.952 46.912 M195.800 47.807 C 196.240 48.166,196.960 48.635,197.400 48.851 L 198.200 49.244 197.400 48.593 C 196.960 48.234,196.240 47.765,195.800 47.549 L 195.000 47.156 195.800 47.807 M199.600 48.800 C 198.808 49.054,198.767 49.120,199.400 49.120 C 199.840 49.120,200.650 48.976,201.200 48.800 C 201.992 48.546,202.033 48.480,201.400 48.480 C 200.960 48.480,200.150 48.624,199.600 48.800 " stroke="none" fill="#db6dd8" fill-rule="evenodd"></path><path id="path2" d="" stroke="none" fill="#db6cd8" fill-rule="evenodd"></path><path id="path3" d="M0.000 25.000 L 0.000 50.000 200.000 50.000 L 400.000 50.000 400.000 25.000 L 400.000 0.000 200.000 0.000 L 0.000 0.000 0.000 25.000 M210.219 3.835 C 212.957 5.505,215.279 7.005,215.380 7.168 C 215.554 7.449,216.201 10.413,221.221 33.918 C 222.363 39.263,223.197 43.736,223.075 43.859 C 222.783 44.151,199.642 49.196,198.583 49.198 C 198.133 49.199,195.797 47.851,193.390 46.203 C 190.984 44.554,188.858 43.153,188.666 43.089 C 188.350 42.983,185.316 29.581,183.151 18.727 L 182.299 14.454 185.448 9.463 L 188.597 4.472 196.598 2.678 C 200.999 1.692,204.745 0.865,204.921 0.842 C 205.098 0.819,207.482 2.166,210.219 3.835 M195.738 15.017 C 195.608 15.357,195.613 15.747,195.751 15.884 C 195.888 16.021,196.000 15.847,196.000 15.496 C 196.000 15.145,196.315 14.776,196.700 14.676 C 197.356 14.504,197.355 14.490,196.687 14.446 C 196.296 14.421,195.868 14.678,195.738 15.017 M199.800 16.281 C 199.360 16.389,198.866 16.603,198.703 16.756 C 198.438 17.004,201.727 33.234,202.196 33.993 C 202.562 34.586,204.991 33.791,205.137 33.030 C 205.253 32.427,205.087 32.328,204.234 32.491 C 203.409 32.649,203.148 32.513,202.997 31.846 C 200.450 20.595,200.418 20.108,202.200 19.774 C 202.970 19.629,203.600 19.357,203.600 19.168 C 203.600 18.979,203.351 18.921,203.046 19.038 C 202.664 19.184,202.379 18.777,202.131 17.728 C 201.770 16.201,201.304 15.911,199.800 16.281 M214.000 19.353 C 214.000 19.438,214.450 19.593,215.000 19.698 C 215.550 19.803,216.000 19.734,216.000 19.545 C 216.000 19.355,215.550 19.200,215.000 19.200 C 214.450 19.200,214.000 19.269,214.000 19.353 M203.200 22.600 C 203.200 23.150,203.269 23.600,203.353 23.600 C 203.438 23.600,203.593 23.150,203.698 22.600 C 203.803 22.050,203.734 21.600,203.545 21.600 C 203.355 21.600,203.200 22.050,203.200 22.600 " stroke="none" fill="#ff7dfb" fill-rule="evenodd"></path><path id="path4" d="M196.814 5.145 L 190.229 6.613 187.500 10.806 C 185.438 13.974,184.819 15.245,184.970 16.000 C 185.079 16.550,185.721 19.520,186.396 22.600 C 187.071 25.680,188.246 31.159,189.008 34.775 C 189.770 38.391,190.550 41.451,190.741 41.575 C 190.932 41.699,192.801 42.934,194.894 44.320 L 198.700 46.839 208.050 44.844 C 213.192 43.747,218.075 42.728,218.900 42.580 C 219.725 42.432,220.394 42.106,220.386 41.855 C 220.333 40.062,215.629 19.810,215.235 19.678 C 214.602 19.467,204.311 21.580,203.845 22.016 C 202.913 22.892,204.837 29.600,206.021 29.600 C 207.068 29.600,207.174 29.754,207.595 31.900 C 207.844 33.165,208.119 34.419,208.206 34.687 C 208.480 35.526,201.049 37.586,200.324 36.872 C 199.841 36.396,195.556 15.082,195.885 14.789 C 196.058 14.635,197.790 14.183,199.733 13.785 C 203.563 13.000,203.980 13.127,203.994 15.076 C 204.004 16.456,204.442 16.477,209.570 15.341 C 214.933 14.154,214.694 14.407,213.856 10.814 L 213.346 8.629 209.373 6.139 C 204.720 3.224,205.246 3.265,196.814 5.145 " stroke="none" fill="#ff90fc" fill-rule="evenodd"></path></g></svg>