<svg id="svg" version="1.1" width="1000" height="125" xmlns="http://www.w3.org/2000/svg" xmlns:xlink="http://www.w3.org/1999/xlink" style="display: block;"><g id="svgg"><path id="path0" d="M207.800 1.629 C 195.877 4.240,178.194 8.150,178.114 8.192 C 178.024 8.240,180.276 18.515,180.630 19.672 C 180.789 20.189,181.146 20.294,182.176 20.126 L 183.515 19.909 184.139 22.655 C 186.570 33.360,187.087 37.197,186.100 37.206 C 184.487 37.220,184.454 37.624,185.580 43.503 C 186.181 46.639,186.751 49.284,186.847 49.381 C 187.149 49.683,221.787 42.346,222.252 41.882 C 222.361 41.773,220.700 33.082,220.184 31.061 C 219.934 30.079,219.743 29.951,218.809 30.138 L 217.724 30.355 216.029 22.678 C 215.097 18.455,214.244 14.613,214.134 14.139 C 213.969 13.435,214.160 13.228,215.182 13.004 C 216.099 12.802,216.379 12.553,216.232 12.065 C 216.123 11.699,215.578 9.330,215.020 6.800 C 213.589 0.300,213.615 0.395,213.292 0.445 C 213.132 0.470,210.660 1.003,207.800 1.629 M213.546 6.796 C 214.515 11.498,214.465 12.000,213.029 12.000 C 212.108 12.000,212.107 12.008,212.645 14.300 C 212.942 15.565,213.826 19.750,214.608 23.600 C 216.459 32.706,216.237 32.099,217.609 31.798 C 218.656 31.568,218.781 31.667,219.157 33.031 C 219.982 36.016,220.561 40.400,220.178 40.758 C 219.433 41.456,206.642 43.992,206.339 43.501 C 205.451 42.064,204.657 35.593,205.308 35.098 C 205.916 34.636,205.351 29.618,204.608 28.875 C 204.374 28.641,199.476 29.582,198.822 29.986 C 198.070 30.451,199.394 36.454,200.182 36.152 C 200.477 36.038,200.828 36.122,200.961 36.337 C 201.241 36.789,202.860 44.481,202.704 44.613 C 202.360 44.903,188.338 47.671,188.153 47.486 C 188.028 47.362,187.582 45.671,187.161 43.730 C 186.739 41.788,186.307 39.815,186.201 39.344 C 186.038 38.627,186.235 38.445,187.406 38.225 C 188.590 38.003,188.776 37.826,188.612 37.081 C 188.505 36.597,187.886 33.590,187.236 30.400 C 186.586 27.210,185.736 23.125,185.347 21.321 L 184.639 18.043 183.220 18.121 L 181.800 18.200 180.901 14.600 C 179.467 8.863,179.141 9.267,186.409 7.781 C 189.824 7.083,193.005 6.389,193.477 6.239 C 194.107 6.039,194.391 6.158,194.546 6.683 C 194.776 7.469,196.400 14.389,196.400 14.585 C 196.400 14.652,196.059 14.796,195.643 14.905 C 194.983 15.077,195.394 19.259,196.212 20.702 C 196.244 20.758,197.707 20.501,199.463 20.132 L 202.656 19.461 202.013 16.630 C 201.605 14.833,201.173 13.800,200.829 13.800 C 199.849 13.800,197.631 6.237,198.384 5.465 C 198.564 5.280,201.296 4.604,204.455 3.963 C 207.615 3.321,210.380 2.721,210.600 2.630 C 212.348 1.901,212.614 2.277,213.546 6.796 M200.600 16.985 C 200.600 18.084,198.097 19.431,197.382 18.716 C 196.722 18.055,196.774 16.059,197.458 15.875 C 199.438 15.341,200.600 15.752,200.600 16.985 M203.586 31.174 C 204.201 32.324,204.087 33.881,203.367 34.157 C 201.906 34.718,200.783 34.408,200.374 33.332 C 199.638 31.396,200.057 30.916,202.886 30.447 C 203.043 30.421,203.358 30.748,203.586 31.174 " stroke="none" fill="#b41a06" fill-rule="evenodd"></path><path id="path1" d="M211.647 2.666 C 212.010 2.762,212.486 3.578,212.730 4.519 L 213.166 6.200 212.947 4.603 C 212.677 2.636,212.530 2.388,211.676 2.446 C 211.079 2.487,211.076 2.513,211.647 2.666 M198.400 6.400 C 198.400 7.060,198.470 7.600,198.555 7.600 C 198.640 7.600,198.788 7.060,198.885 6.400 C 198.982 5.740,198.913 5.200,198.731 5.200 C 198.549 5.200,198.400 5.740,198.400 6.400 M184.400 6.400 C 183.608 6.654,183.567 6.720,184.200 6.720 C 184.640 6.720,185.450 6.576,186.000 6.400 C 186.792 6.146,186.833 6.080,186.200 6.080 C 185.760 6.080,184.950 6.224,184.400 6.400 M191.200 6.811 C 190.500 7.055,190.784 7.090,192.144 6.928 C 193.555 6.760,194.194 6.847,194.475 7.248 C 194.793 7.702,194.832 7.694,194.700 7.200 C 194.513 6.506,192.663 6.300,191.200 6.811 M213.280 7.000 C 213.280 7.440,213.424 8.250,213.600 8.800 C 213.854 9.592,213.920 9.633,213.920 9.000 C 213.920 8.560,213.776 7.750,213.600 7.200 C 213.346 6.408,213.280 6.367,213.280 7.000 M187.600 7.600 C 186.808 7.854,186.767 7.920,187.400 7.920 C 187.840 7.920,188.650 7.776,189.200 7.600 C 189.992 7.346,190.033 7.280,189.400 7.280 C 188.960 7.280,188.150 7.424,187.600 7.600 M177.867 7.867 C 177.720 8.013,177.603 8.328,177.606 8.567 C 177.610 8.860,177.707 8.853,177.906 8.546 C 178.068 8.297,178.560 8.003,179.000 7.893 C 179.774 7.699,179.773 7.691,178.967 7.646 C 178.508 7.621,178.013 7.720,177.867 7.867 M198.880 8.600 C 198.880 9.040,199.024 9.850,199.200 10.400 C 199.454 11.192,199.520 11.233,199.520 10.600 C 199.520 10.160,199.376 9.350,199.200 8.800 C 198.946 8.008,198.880 7.967,198.880 8.600 M178.080 9.800 C 178.080 10.240,178.224 11.050,178.400 11.600 C 178.654 12.392,178.720 12.433,178.720 11.800 C 178.720 11.360,178.576 10.550,178.400 10.000 C 178.146 9.208,178.080 9.167,178.080 9.800 M180.000 10.200 C 180.000 10.750,180.069 11.200,180.153 11.200 C 180.238 11.200,180.393 10.750,180.498 10.200 C 180.603 9.650,180.534 9.200,180.345 9.200 C 180.155 9.200,180.000 9.650,180.000 10.200 M199.200 15.956 C 200.424 16.295,200.799 17.841,199.723 18.120 C 199.097 18.282,199.090 18.313,199.676 18.354 C 200.580 18.416,200.929 17.767,200.630 16.577 C 200.441 15.825,200.134 15.609,199.292 15.640 L 198.200 15.680 199.200 15.956 M202.087 16.200 C 202.091 16.640,202.232 17.540,202.400 18.200 C 202.674 19.278,202.706 19.298,202.713 18.400 C 202.717 17.850,202.576 16.950,202.400 16.400 C 202.149 15.616,202.081 15.573,202.087 16.200 M182.316 20.284 C 182.949 20.406,183.305 20.826,183.469 21.644 C 183.599 22.295,183.789 22.744,183.891 22.642 C 184.553 21.981,183.466 20.004,182.468 20.054 C 181.503 20.104,181.488 20.126,182.316 20.284 M219.487 29.861 C 219.755 29.969,220.092 30.684,220.235 31.448 C 220.379 32.212,220.576 32.757,220.674 32.660 C 221.141 32.192,220.270 29.602,219.655 29.632 C 219.261 29.651,219.194 29.742,219.487 29.861 M203.515 32.800 C 203.418 33.460,203.487 34.000,203.669 34.000 C 203.851 34.000,204.000 33.460,204.000 32.800 C 204.000 32.140,203.930 31.600,203.845 31.600 C 203.760 31.600,203.612 32.140,203.515 32.800 M198.480 32.600 C 198.480 33.040,198.624 33.850,198.800 34.400 C 199.054 35.192,199.120 35.233,199.120 34.600 C 199.120 34.160,198.976 33.350,198.800 32.800 C 198.546 32.008,198.480 31.967,198.480 32.600 M200.527 33.400 C 200.582 33.943,200.928 34.221,201.604 34.266 C 202.439 34.320,202.458 34.300,201.725 34.141 C 201.243 34.036,200.758 33.647,200.648 33.275 C 200.502 32.789,200.469 32.824,200.527 33.400 M186.446 35.671 C 186.418 36.328,186.129 36.812,185.700 36.924 C 185.044 37.096,185.045 37.110,185.713 37.154 C 186.524 37.206,186.956 36.389,186.680 35.323 C 186.554 34.837,186.478 34.951,186.446 35.671 M204.800 36.400 C 204.800 37.060,204.870 37.600,204.955 37.600 C 205.040 37.600,205.188 37.060,205.285 36.400 C 205.382 35.740,205.313 35.200,205.131 35.200 C 204.949 35.200,204.800 35.740,204.800 36.400 M188.800 37.571 C 188.800 37.775,188.485 38.024,188.100 38.124 C 187.573 38.262,187.623 38.319,188.300 38.354 C 188.854 38.382,189.200 38.169,189.200 37.800 C 189.200 37.470,189.110 37.200,189.000 37.200 C 188.890 37.200,188.800 37.367,188.800 37.571 M215.600 41.600 C 214.808 41.854,214.767 41.920,215.400 41.920 C 215.840 41.920,216.650 41.776,217.200 41.600 C 217.992 41.346,218.033 41.280,217.400 41.280 C 216.960 41.280,216.150 41.424,215.600 41.600 M211.000 42.591 C 209.900 42.874,209.360 43.109,209.800 43.114 C 210.240 43.119,211.500 42.892,212.600 42.609 C 213.700 42.326,214.240 42.091,213.800 42.086 C 213.360 42.081,212.100 42.308,211.000 42.591 M186.406 49.113 C 186.397 49.865,187.314 50.089,188.426 49.605 C 189.354 49.202,189.345 49.193,188.238 49.414 C 187.496 49.562,186.956 49.457,186.744 49.123 C 186.480 48.706,186.411 48.704,186.406 49.113 " stroke="none" fill="#b61d09" fill-rule="evenodd"></path><path id="path2" d="" stroke="none" fill="#b61d08" fill-rule="evenodd"></path><path id="path3" d="M0.000 25.000 L 0.000 50.000 93.332 50.000 L 186.664 50.000 185.342 43.900 C 184.615 40.545,184.016 37.679,184.010 37.532 C 184.005 37.384,184.540 37.145,185.200 37.000 C 186.737 36.662,186.735 36.568,184.991 28.400 C 183.129 19.672,183.381 20.291,181.761 20.481 C 181.012 20.568,180.400 20.615,180.400 20.585 C 180.400 20.556,179.778 17.758,179.018 14.367 C 178.259 10.977,177.764 8.093,177.918 7.958 C 178.073 7.823,186.030 6.044,195.600 4.005 C 205.170 1.965,213.075 0.229,213.167 0.148 C 213.258 0.067,165.333 0.000,106.667 0.000 L 0.000 0.000 0.000 25.000 M214.000 0.202 C 214.000 0.313,214.540 2.952,215.200 6.065 C 216.646 12.889,216.656 13.108,215.500 13.272 C 214.356 13.435,214.383 13.739,216.340 22.800 L 217.852 29.800 219.057 29.708 L 220.262 29.616 221.559 35.847 C 222.272 39.274,222.796 42.137,222.723 42.211 C 222.649 42.284,218.632 43.177,213.795 44.196 C 208.958 45.214,201.760 46.757,197.800 47.623 C 193.840 48.490,190.296 49.200,189.924 49.200 C 189.552 49.200,189.136 49.380,189.000 49.600 C 188.835 49.866,224.063 50.000,294.376 50.000 L 400.000 50.000 400.000 25.000 L 400.000 0.000 307.000 0.000 C 255.850 0.000,214.000 0.091,214.000 0.202 M197.657 16.346 C 197.021 16.761,197.398 18.403,198.127 18.395 C 199.583 18.378,200.436 17.854,200.321 17.048 C 200.190 16.126,198.626 15.715,197.657 16.346 M201.800 31.088 C 199.757 31.573,200.071 34.124,202.149 33.922 C 203.283 33.811,203.400 33.672,203.400 32.433 C 203.400 31.004,203.126 30.773,201.800 31.088 " stroke="none" fill="#d31f07" fill-rule="evenodd"></path><path id="path4" d="M205.275 4.202 C 201.906 4.925,199.054 5.613,198.936 5.731 C 198.332 6.334,200.258 13.002,201.070 13.121 C 201.812 13.230,203.539 18.977,202.996 19.534 C 202.792 19.743,196.216 21.136,196.073 21.000 C 195.183 20.153,194.620 14.400,195.427 14.400 C 195.833 14.400,195.984 14.154,195.855 13.700 C 195.745 13.315,195.355 11.605,194.988 9.900 C 194.604 8.118,194.115 6.800,193.838 6.800 C 193.442 6.800,184.852 8.588,181.254 9.420 C 180.205 9.662,180.197 9.435,181.439 15.084 L 182.073 17.968 183.522 17.884 L 184.971 17.800 185.477 20.200 C 185.756 21.520,186.707 26.002,187.592 30.161 C 189.521 39.229,189.499 38.308,187.788 38.629 C 186.736 38.826,186.423 39.060,186.562 39.547 C 186.665 39.906,187.067 41.775,187.456 43.700 C 187.846 45.625,188.334 47.200,188.541 47.200 C 188.965 47.200,202.148 44.387,202.257 44.273 C 202.713 43.798,200.543 36.800,199.940 36.800 C 199.515 36.800,199.132 36.428,199.014 35.900 C 197.460 28.944,197.113 29.738,202.118 28.808 C 205.367 28.204,205.040 27.941,205.838 31.800 C 206.445 34.733,206.443 34.979,205.817 35.437 C 205.014 36.024,206.085 42.704,207.041 43.071 C 207.449 43.228,216.662 41.394,219.634 40.565 C 220.895 40.213,218.867 32.605,217.505 32.582 C 216.055 32.557,216.326 33.334,214.024 22.600 C 212.892 17.320,211.885 12.765,211.787 12.478 C 211.681 12.170,212.111 11.780,212.835 11.528 C 213.803 11.190,214.019 10.921,213.860 10.250 C 213.749 9.783,213.345 7.915,212.961 6.100 C 212.578 4.285,212.069 2.820,211.832 2.844 C 211.594 2.868,208.644 3.479,205.275 4.202 " stroke="none" fill="#da402c" fill-rule="evenodd"></path></g></svg>